<svg xmlns="http://www.w3.org/2000/svg" xmlns:xlink="http://www.w3.org/1999/xlink" width="1080" zoomAndPan="magnify" viewBox="0 0 810 809.999993" height="1080" preserveAspectRatio="xMidYMid meet" version="1.0"><defs><clipPath id="id1"><path d="M 264 474 L 546 474 L 546 559.742188 L 264 559.742188 Z M 264 474 " clip-rule="nonzero"/></clipPath><clipPath id="id2"><path d="M 281.253906 477.140625 C 310.464844 502.871094 355.65625 518.359375 404.878906 518.359375 C 454.101562 518.359375 499.292969 502.871094 528.503906 477.140625 C 537.382812 469.316406 550.292969 480.125 544.078125 490.289062 C 518.257812 532.558594 464.511719 559.660156 404.878906 559.660156 C 345.246094 559.660156 291.5 532.558594 265.679688 490.289062 C 259.464844 480.125 272.375 469.316406 281.253906 477.140625 Z M 281.253906 477.140625 " clip-rule="nonzero"/></clipPath><clipPath id="id3"><path d="M 136.324219 249.992188 L 280.929688 249.992188 L 280.929688 353.242188 L 136.324219 353.242188 Z M 136.324219 249.992188 " clip-rule="nonzero"/></clipPath><clipPath id="id4"><path d="M 137.289062 344.449219 C 136.644531 340.011719 136.324219 335.574219 136.324219 331.140625 C 136.324219 286.613281 168.359375 249.992188 208.625 249.992188 C 248.894531 249.992188 280.929688 286.613281 280.929688 331.140625 C 280.929688 335.574219 280.605469 340.011719 279.960938 344.449219 C 278.265625 356.226562 261.238281 356.226562 259.546875 344.449219 C 255.269531 315.410156 233.5625 294.277344 208.625 294.277344 C 183.691406 294.277344 161.984375 315.410156 157.707031 344.449219 C 156.011719 356.226562 138.984375 356.226562 137.289062 344.449219 Z M 137.289062 344.449219 " clip-rule="nonzero"/></clipPath><clipPath id="id5"><path d="M 528.828125 249.992188 L 673.433594 249.992188 L 673.433594 353.242188 L 528.828125 353.242188 Z M 528.828125 249.992188 " clip-rule="nonzero"/></clipPath><clipPath id="id6"><path d="M 529.796875 344.449219 C 529.152344 340.011719 528.828125 335.574219 528.828125 331.140625 C 528.828125 286.613281 560.863281 249.992188 601.132812 249.992188 C 641.398438 249.992188 673.433594 286.613281 673.433594 331.140625 C 673.433594 335.574219 673.113281 340.011719 672.46875 344.449219 C 670.773438 356.226562 653.746094 356.226562 652.050781 344.449219 C 647.773438 315.410156 626.066406 294.277344 601.132812 294.277344 C 576.195312 294.277344 554.488281 315.410156 550.210938 344.449219 C 548.519531 356.226562 531.492188 356.226562 529.796875 344.449219 Z M 529.796875 344.449219 " clip-rule="nonzero"/></clipPath></defs><path fill="rgb(23.529053%, 3.529358%, 42.349243%)" d="M 405 40.5 C 606 40.5 769.5 204 769.5 405 C 769.5 606 606 769.5 405 769.5 C 204 769.5 40.5 606 40.5 405 C 40.5 204 204 40.5 405 40.5 M 405 0 C 181.320312 0 0 181.320312 0 405 C 0 628.679688 181.320312 810 405 810 C 628.679688 810 810 628.679688 810 405 C 810 181.320312 628.679688 0 405 0 Z M 405 0 " fill-opacity="1" fill-rule="nonzero"/><g clip-path="url(#id1)"><g clip-path="url(#id2)"><path fill="rgb(23.529053%, 3.529358%, 42.349243%)" d="M 160.691406 662.910156 L 648.984375 662.910156 L 648.984375 371.230469 L 160.691406 371.230469 Z M 160.691406 662.910156 " fill-opacity="1" fill-rule="nonzero"/></g></g><g clip-path="url(#id3)"><g clip-path="url(#id4)"><path fill="rgb(23.529053%, 3.529358%, 42.349243%)" d="M 33.03125 456.492188 L 384.222656 456.492188 L 384.222656 146.742188 L 33.03125 146.742188 Z M 33.03125 456.492188 " fill-opacity="1" fill-rule="nonzero"/></g></g><g clip-path="url(#id5)"><g clip-path="url(#id6)"><path fill="rgb(23.529053%, 3.529358%, 42.349243%)" d="M 425.539062 456.492188 L 776.726562 456.492188 L 776.726562 146.742188 L 425.539062 146.742188 Z M 425.539062 456.492188 " fill-opacity="1" fill-rule="nonzero"/></g></g></svg>