<svg xmlns="http://www.w3.org/2000/svg" xmlns:xlink="http://www.w3.org/1999/xlink" width="1080" zoomAndPan="magnify" viewBox="0 0 810 809.999993" height="1080" preserveAspectRatio="xMidYMid meet" version="1.0"><defs><clipPath id="id1"><path d="M 17.429688 62.25 L 704 62.25 L 704 748.46875 L 17.429688 748.46875 Z M 17.429688 62.25 " clip-rule="nonzero"/></clipPath></defs><rect x="-81" width="972" fill="#ffffff" y="-80.999999" height="971.999992" fill-opacity="1"/><rect x="-81" width="972" fill="#ffffff" y="-80.999999" height="971.999992" fill-opacity="1"/><rect x="-81" width="972" fill="#ffffff" y="-80.999999" height="971.999992" fill-opacity="1"/><rect x="-81" width="972" fill="#ffffff" y="-80.999999" height="971.999992" fill-opacity="1"/><path fill="#3c096c" d="M 733.746094 70.695312 L 350.101562 454.179688 C 347.148438 457.128906 342.339844 457.128906 339.386719 454.179688 L 166.902344 281.765625 C 161.679688 276.617188 153.371094 276.617188 148.148438 281.765625 L 113.324219 316.578125 C 108.171875 321.726562 108.171875 330.105469 113.324219 335.324219 L 322.625 544.539062 C 334.851562 556.691406 354.636719 556.691406 366.792969 544.539062 L 787.324219 124.183594 C 792.476562 119.035156 792.476562 110.65625 787.324219 105.4375 L 752.496094 70.695312 C 747.34375 65.476562 738.964844 65.476562 733.746094 70.628906 C 733.746094 70.628906 733.746094 70.628906 733.746094 70.695312 " fill-opacity="1" fill-rule="nonzero"/><g clip-path="url(#id1)"><path fill="#3c096c" d="M 694.589844 326.054688 L 670.34375 331.820312 C 710.9375 502.792969 605.222656 674.242188 434.25 714.890625 C 263.207031 755.472656 91.683594 649.796875 51.089844 478.898438 C 10.421875 307.925781 116.140625 136.476562 287.113281 95.894531 C 382.042969 73.375 481.988281 95.550781 558.375 156.113281 L 573.898438 136.542969 C 425.386719 18.785156 209.492188 43.78125 91.683594 192.230469 C -26.050781 340.746094 -1.117188 556.484375 147.460938 674.242188 C 295.972656 791.929688 511.871094 767.007812 629.609375 618.488281 C 695.003906 536.160156 718.90625 428.359375 694.589844 326.054688 " fill-opacity="1" fill-rule="nonzero"/></g></svg>