<svg xmlns="http://www.w3.org/2000/svg" xmlns:xlink="http://www.w3.org/1999/xlink" width="1080" zoomAndPan="magnify" viewBox="0 0 810 809.999993" height="1080" preserveAspectRatio="xMidYMid meet" version="1.0"><defs><clipPath id="id1"><path d="M 16.992188 16.992188 L 793.242188 16.992188 L 793.242188 793.242188 L 16.992188 793.242188 Z M 16.992188 16.992188 " clip-rule="nonzero"/></clipPath><clipPath id="id2"><path d="M 793.242188 405.117188 C 793.242188 411.46875 793.085938 417.820312 792.777344 424.164062 C 792.464844 430.507812 791.996094 436.839844 791.375 443.160156 C 790.75 449.484375 789.972656 455.785156 789.042969 462.066406 C 788.109375 468.351562 787.023438 474.609375 785.785156 480.835938 C 784.546875 487.066406 783.15625 493.261719 781.613281 499.425781 C 780.066406 505.585938 778.375 511.707031 776.53125 517.785156 C 774.6875 523.863281 772.695312 529.894531 770.554688 535.875 C 768.414062 541.855469 766.128906 547.777344 763.699219 553.648438 C 761.269531 559.515625 758.695312 565.320312 755.980469 571.0625 C 753.261719 576.804688 750.410156 582.476562 747.414062 588.078125 C 744.417969 593.679688 741.289062 599.207031 738.023438 604.65625 C 734.757812 610.101562 731.363281 615.46875 727.832031 620.75 C 724.304688 626.03125 720.648438 631.222656 716.863281 636.324219 C 713.078125 641.425781 709.171875 646.433594 705.144531 651.34375 C 701.113281 656.253906 696.964844 661.0625 692.699219 665.765625 C 688.433594 670.472656 684.054688 675.074219 679.5625 679.5625 C 675.074219 684.054688 670.472656 688.433594 665.765625 692.699219 C 661.0625 696.964844 656.253906 701.113281 651.34375 705.144531 C 646.433594 709.171875 641.425781 713.078125 636.324219 716.863281 C 631.222656 720.648438 626.03125 724.304688 620.75 727.832031 C 615.46875 731.363281 610.101562 734.757812 604.65625 738.023438 C 599.207031 741.289062 593.679688 744.417969 588.078125 747.414062 C 582.476562 750.410156 576.804688 753.261719 571.0625 755.980469 C 565.320312 758.695312 559.515625 761.269531 553.648438 763.699219 C 547.777344 766.128906 541.855469 768.414062 535.875 770.554688 C 529.894531 772.695312 523.863281 774.6875 517.785156 776.53125 C 511.707031 778.375 505.585938 780.066406 499.425781 781.613281 C 493.261719 783.15625 487.066406 784.546875 480.835938 785.785156 C 474.609375 787.023438 468.351562 788.109375 462.066406 789.042969 C 455.785156 789.972656 449.484375 790.75 443.160156 791.375 C 436.839844 791.996094 430.507812 792.464844 424.164062 792.777344 C 417.820312 793.085938 411.46875 793.242188 405.117188 793.242188 C 398.765625 793.242188 392.417969 793.085938 386.074219 792.777344 C 379.730469 792.464844 373.398438 791.996094 367.074219 791.375 C 360.753906 790.75 354.453125 789.972656 348.167969 789.042969 C 341.886719 788.109375 335.628906 787.023438 329.398438 785.785156 C 323.167969 784.546875 316.972656 783.15625 310.8125 781.613281 C 304.648438 780.066406 298.53125 778.375 292.453125 776.53125 C 286.375 774.6875 280.34375 772.695312 274.363281 770.554688 C 268.382812 768.414062 262.457031 766.128906 256.589844 763.699219 C 250.722656 761.269531 244.914062 758.695312 239.171875 755.980469 C 233.429688 753.261719 227.757812 750.410156 222.15625 747.414062 C 216.554688 744.417969 211.03125 741.289062 205.582031 738.023438 C 200.132812 734.757812 194.769531 731.363281 189.488281 727.832031 C 184.207031 724.304688 179.015625 720.648438 173.914062 716.863281 C 168.8125 713.078125 163.804688 709.171875 158.894531 705.144531 C 153.984375 701.113281 149.175781 696.964844 144.46875 692.699219 C 139.761719 688.433594 135.164062 684.054688 130.671875 679.5625 C 126.179688 675.074219 121.800781 670.472656 117.535156 665.765625 C 113.269531 661.0625 109.125 656.253906 105.09375 651.34375 C 101.0625 646.433594 97.15625 641.425781 93.375 636.324219 C 89.589844 631.222656 85.933594 626.03125 82.402344 620.75 C 78.875 615.46875 75.476562 610.101562 72.210938 604.65625 C 68.945312 599.207031 65.816406 593.679688 62.824219 588.078125 C 59.828125 582.476562 56.972656 576.804688 54.257812 571.0625 C 51.542969 565.320312 48.96875 559.515625 46.539062 553.648438 C 44.105469 547.777344 41.820312 541.855469 39.679688 535.875 C 37.542969 529.894531 35.550781 523.863281 33.707031 517.785156 C 31.863281 511.707031 30.167969 505.585938 28.625 499.425781 C 27.082031 493.261719 25.691406 487.066406 24.449219 480.835938 C 23.210938 474.609375 22.125 468.351562 21.195312 462.066406 C 20.261719 455.785156 19.484375 449.484375 18.863281 443.160156 C 18.238281 436.839844 17.773438 430.507812 17.460938 424.164062 C 17.148438 417.820312 16.992188 411.46875 16.992188 405.117188 C 16.992188 398.765625 17.148438 392.417969 17.460938 386.074219 C 17.773438 379.730469 18.238281 373.398438 18.863281 367.074219 C 19.484375 360.753906 20.261719 354.453125 21.195312 348.167969 C 22.125 341.886719 23.210938 335.628906 24.449219 329.398438 C 25.691406 323.167969 27.082031 316.972656 28.625 310.8125 C 30.167969 304.648438 31.863281 298.53125 33.707031 292.453125 C 35.550781 286.375 37.542969 280.34375 39.679688 274.363281 C 41.820312 268.382812 44.105469 262.457031 46.539062 256.589844 C 48.96875 250.722656 51.542969 244.914062 54.257812 239.171875 C 56.972656 233.429688 59.828125 227.757812 62.824219 222.15625 C 65.816406 216.554688 68.945312 211.03125 72.210938 205.582031 C 75.476562 200.132812 78.875 194.769531 82.402344 189.488281 C 85.933594 184.207031 89.589844 179.015625 93.375 173.914062 C 97.15625 168.8125 101.0625 163.804688 105.09375 158.894531 C 109.125 153.984375 113.269531 149.175781 117.535156 144.46875 C 121.800781 139.761719 126.179688 135.164062 130.671875 130.671875 C 135.164062 126.179688 139.761719 121.800781 144.46875 117.535156 C 149.175781 113.269531 153.984375 109.125 158.894531 105.09375 C 163.804688 101.0625 168.8125 97.15625 173.914062 93.375 C 179.015625 89.589844 184.207031 85.933594 189.488281 82.402344 C 194.769531 78.875 200.132812 75.476562 205.582031 72.210938 C 211.03125 68.945312 216.554688 65.816406 222.15625 62.824219 C 227.757812 59.828125 233.429688 56.972656 239.171875 54.257812 C 244.914062 51.542969 250.722656 48.96875 256.589844 46.539062 C 262.457031 44.105469 268.382812 41.820312 274.363281 39.683594 C 280.34375 37.542969 286.375 35.550781 292.453125 33.707031 C 298.53125 31.863281 304.648438 30.167969 310.8125 28.625 C 316.972656 27.082031 323.167969 25.691406 329.398438 24.449219 C 335.628906 23.210938 341.886719 22.125 348.167969 21.195312 C 354.453125 20.261719 360.753906 19.484375 367.074219 18.863281 C 373.398438 18.238281 379.730469 17.773438 386.074219 17.460938 C 392.417969 17.148438 398.765625 16.992188 405.117188 16.992188 C 411.46875 16.992188 417.820312 17.148438 424.164062 17.460938 C 430.507812 17.773438 436.839844 18.238281 443.160156 18.863281 C 449.484375 19.484375 455.785156 20.261719 462.066406 21.195312 C 468.351562 22.125 474.609375 23.210938 480.835938 24.449219 C 487.066406 25.691406 493.261719 27.082031 499.425781 28.625 C 505.585938 30.167969 511.707031 31.863281 517.785156 33.707031 C 523.863281 35.550781 529.894531 37.542969 535.875 39.683594 C 541.855469 41.820312 547.777344 44.105469 553.648438 46.539062 C 559.515625 48.96875 565.320312 51.542969 571.0625 54.257812 C 576.804688 56.972656 582.476562 59.828125 588.078125 62.824219 C 593.679688 65.816406 599.207031 68.945312 604.65625 72.210938 C 610.101562 75.476562 615.46875 78.875 620.75 82.402344 C 626.03125 85.933594 631.222656 89.589844 636.324219 93.375 C 641.425781 97.15625 646.433594 101.0625 651.34375 105.09375 C 656.253906 109.125 661.0625 113.269531 665.765625 117.535156 C 670.472656 121.800781 675.074219 126.179688 679.5625 130.671875 C 684.054688 135.164062 688.433594 139.761719 692.699219 144.46875 C 696.964844 149.175781 701.113281 153.984375 705.144531 158.894531 C 709.171875 163.804688 713.078125 168.8125 716.863281 173.914062 C 720.648438 179.015625 724.304688 184.207031 727.832031 189.488281 C 731.363281 194.769531 734.757812 200.132812 738.023438 205.582031 C 741.289062 211.03125 744.417969 216.554688 747.414062 222.15625 C 750.410156 227.757812 753.261719 233.429688 755.980469 239.171875 C 758.695312 244.914062 761.269531 250.722656 763.699219 256.589844 C 766.128906 262.457031 768.414062 268.382812 770.554688 274.363281 C 772.695312 280.34375 774.6875 286.375 776.53125 292.453125 C 778.375 298.53125 780.066406 304.648438 781.613281 310.8125 C 783.15625 316.972656 784.546875 323.167969 785.785156 329.398438 C 787.023438 335.628906 788.109375 341.886719 789.042969 348.167969 C 789.972656 354.453125 790.75 360.753906 791.375 367.074219 C 791.996094 373.398438 792.464844 379.730469 792.777344 386.074219 C 793.085938 392.417969 793.242188 398.765625 793.242188 405.117188 Z M 793.242188 405.117188 " clip-rule="nonzero"/></clipPath><linearGradient x1="1770.926043" gradientTransform="matrix(0.00000000000000037, 6.050272, -6.050272, 0.00000000000000037, 1886.430387, -10697.591608)" y1="244.834" x2="1899.226042" gradientUnits="userSpaceOnUse" y2="244.834" xlink:type="simple" xlink:actuate="onLoad" id="id3" xlink:show="other"><stop stop-opacity="1" stop-color="rgb(77.999878%, 48.999023%, 99.998474%)" offset="0"/><stop stop-opacity="1" stop-color="rgb(77.664185%, 48.718262%, 99.64447%)" offset="0.00390625"/><stop stop-opacity="1" stop-color="rgb(77.328491%, 48.439026%, 99.290466%)" offset="0.0078125"/><stop stop-opacity="1" stop-color="rgb(76.992798%, 48.158264%, 98.936462%)" offset="0.0117188"/><stop stop-opacity="1" stop-color="rgb(76.65863%, 47.879028%, 98.582458%)" offset="0.015625"/><stop stop-opacity="1" stop-color="rgb(76.322937%, 47.599792%, 98.226929%)" offset="0.0195312"/><stop stop-opacity="1" stop-color="rgb(75.987244%, 47.320557%, 97.872925%)" offset="0.0234375"/><stop stop-opacity="1" stop-color="rgb(75.65155%, 47.039795%, 97.518921%)" offset="0.0273438"/><stop stop-opacity="1" stop-color="rgb(75.317383%, 46.760559%, 97.164917%)" offset="0.03125"/><stop stop-opacity="1" stop-color="rgb(74.981689%, 46.479797%, 96.809387%)" offset="0.0351562"/><stop stop-opacity="1" stop-color="rgb(74.645996%, 46.200562%, 96.455383%)" offset="0.0390625"/><stop stop-opacity="1" stop-color="rgb(74.310303%, 45.9198%, 96.101379%)" offset="0.0429688"/><stop stop-opacity="1" stop-color="rgb(73.976135%, 45.640564%, 95.747375%)" offset="0.046875"/><stop stop-opacity="1" stop-color="rgb(73.640442%, 45.359802%, 95.391846%)" offset="0.0507813"/><stop stop-opacity="1" stop-color="rgb(73.306274%, 45.080566%, 95.037842%)" offset="0.0546875"/><stop stop-opacity="1" stop-color="rgb(72.970581%, 44.799805%, 94.683838%)" offset="0.0585938"/><stop stop-opacity="1" stop-color="rgb(72.634888%, 44.520569%, 94.329834%)" offset="0.0625"/><stop stop-opacity="1" stop-color="rgb(72.299194%, 44.239807%, 93.97583%)" offset="0.0664063"/><stop stop-opacity="1" stop-color="rgb(71.965027%, 43.960571%, 93.621826%)" offset="0.0703125"/><stop stop-opacity="1" stop-color="rgb(71.629333%, 43.67981%, 93.266296%)" offset="0.0742188"/><stop stop-opacity="1" stop-color="rgb(71.29364%, 43.400574%, 92.912292%)" offset="0.078125"/><stop stop-opacity="1" stop-color="rgb(70.957947%, 43.121338%, 92.558289%)" offset="0.0820313"/><stop stop-opacity="1" stop-color="rgb(70.623779%, 42.842102%, 92.204285%)" offset="0.0859375"/><stop stop-opacity="1" stop-color="rgb(70.288086%, 42.56134%, 91.848755%)" offset="0.0898438"/><stop stop-opacity="1" stop-color="rgb(69.952393%, 42.282104%, 91.494751%)" offset="0.09375"/><stop stop-opacity="1" stop-color="rgb(69.616699%, 42.001343%, 91.140747%)" offset="0.0976563"/><stop stop-opacity="1" stop-color="rgb(69.282532%, 41.722107%, 90.786743%)" offset="0.101563"/><stop stop-opacity="1" stop-color="rgb(68.946838%, 41.441345%, 90.431213%)" offset="0.105469"/><stop stop-opacity="1" stop-color="rgb(68.611145%, 41.162109%, 90.077209%)" offset="0.109375"/><stop stop-opacity="1" stop-color="rgb(68.275452%, 40.881348%, 89.723206%)" offset="0.113281"/><stop stop-opacity="1" stop-color="rgb(67.941284%, 40.602112%, 89.369202%)" offset="0.117188"/><stop stop-opacity="1" stop-color="rgb(67.605591%, 40.32135%, 89.015198%)" offset="0.121094"/><stop stop-opacity="1" stop-color="rgb(67.271423%, 40.042114%, 88.661194%)" offset="0.125"/><stop stop-opacity="1" stop-color="rgb(66.93573%, 39.761353%, 88.305664%)" offset="0.128906"/><stop stop-opacity="1" stop-color="rgb(66.600037%, 39.482117%, 87.95166%)" offset="0.132813"/><stop stop-opacity="1" stop-color="rgb(66.264343%, 39.202881%, 87.597656%)" offset="0.136719"/><stop stop-opacity="1" stop-color="rgb(65.930176%, 38.923645%, 87.243652%)" offset="0.140625"/><stop stop-opacity="1" stop-color="rgb(65.594482%, 38.642883%, 86.888123%)" offset="0.144531"/><stop stop-opacity="1" stop-color="rgb(65.258789%, 38.363647%, 86.534119%)" offset="0.148438"/><stop stop-opacity="1" stop-color="rgb(64.923096%, 38.082886%, 86.180115%)" offset="0.152344"/><stop stop-opacity="1" stop-color="rgb(64.588928%, 37.80365%, 85.826111%)" offset="0.15625"/><stop stop-opacity="1" stop-color="rgb(64.253235%, 37.522888%, 85.470581%)" offset="0.160156"/><stop stop-opacity="1" stop-color="rgb(63.917542%, 37.243652%, 85.116577%)" offset="0.164062"/><stop stop-opacity="1" stop-color="rgb(63.581848%, 36.962891%, 84.762573%)" offset="0.167969"/><stop stop-opacity="1" stop-color="rgb(63.247681%, 36.683655%, 84.408569%)" offset="0.171875"/><stop stop-opacity="1" stop-color="rgb(62.911987%, 36.402893%, 84.054565%)" offset="0.175781"/><stop stop-opacity="1" stop-color="rgb(62.57782%, 36.123657%, 83.700562%)" offset="0.179688"/><stop stop-opacity="1" stop-color="rgb(62.242126%, 35.842896%, 83.345032%)" offset="0.183594"/><stop stop-opacity="1" stop-color="rgb(61.906433%, 35.56366%, 82.991028%)" offset="0.1875"/><stop stop-opacity="1" stop-color="rgb(61.57074%, 35.282898%, 82.637024%)" offset="0.191406"/><stop stop-opacity="1" stop-color="rgb(61.236572%, 35.003662%, 82.28302%)" offset="0.195312"/><stop stop-opacity="1" stop-color="rgb(60.900879%, 34.724426%, 81.92749%)" offset="0.199219"/><stop stop-opacity="1" stop-color="rgb(60.565186%, 34.44519%, 81.573486%)" offset="0.203125"/><stop stop-opacity="1" stop-color="rgb(60.229492%, 34.164429%, 81.219482%)" offset="0.207031"/><stop stop-opacity="1" stop-color="rgb(59.895325%, 33.885193%, 80.865479%)" offset="0.210938"/><stop stop-opacity="1" stop-color="rgb(59.559631%, 33.604431%, 80.509949%)" offset="0.214844"/><stop stop-opacity="1" stop-color="rgb(59.223938%, 33.325195%, 80.155945%)" offset="0.21875"/><stop stop-opacity="1" stop-color="rgb(58.888245%, 33.044434%, 79.801941%)" offset="0.222656"/><stop stop-opacity="1" stop-color="rgb(58.554077%, 32.765198%, 79.447937%)" offset="0.226563"/><stop stop-opacity="1" stop-color="rgb(58.218384%, 32.484436%, 79.093933%)" offset="0.230469"/><stop stop-opacity="1" stop-color="rgb(57.884216%, 32.2052%, 78.739929%)" offset="0.234375"/><stop stop-opacity="1" stop-color="rgb(57.548523%, 31.924438%, 78.384399%)" offset="0.238281"/><stop stop-opacity="1" stop-color="rgb(57.21283%, 31.645203%, 78.030396%)" offset="0.242188"/><stop stop-opacity="1" stop-color="rgb(56.877136%, 31.364441%, 77.676392%)" offset="0.246094"/><stop stop-opacity="1" stop-color="rgb(56.542969%, 31.085205%, 77.322388%)" offset="0.25"/><stop stop-opacity="1" stop-color="rgb(56.207275%, 30.805969%, 76.966858%)" offset="0.253906"/><stop stop-opacity="1" stop-color="rgb(55.871582%, 30.526733%, 76.612854%)" offset="0.257813"/><stop stop-opacity="1" stop-color="rgb(55.535889%, 30.245972%, 76.25885%)" offset="0.261719"/><stop stop-opacity="1" stop-color="rgb(55.201721%, 29.966736%, 75.904846%)" offset="0.265625"/><stop stop-opacity="1" stop-color="rgb(54.866028%, 29.685974%, 75.549316%)" offset="0.269531"/><stop stop-opacity="1" stop-color="rgb(54.530334%, 29.406738%, 75.195312%)" offset="0.273438"/><stop stop-opacity="1" stop-color="rgb(54.194641%, 29.125977%, 74.841309%)" offset="0.277344"/><stop stop-opacity="1" stop-color="rgb(53.860474%, 28.846741%, 74.487305%)" offset="0.28125"/><stop stop-opacity="1" stop-color="rgb(53.52478%, 28.565979%, 74.133301%)" offset="0.285156"/><stop stop-opacity="1" stop-color="rgb(53.190613%, 28.286743%, 73.779297%)" offset="0.289063"/><stop stop-opacity="1" stop-color="rgb(52.854919%, 28.005981%, 73.423767%)" offset="0.292969"/><stop stop-opacity="1" stop-color="rgb(52.519226%, 27.726746%, 73.069763%)" offset="0.296875"/><stop stop-opacity="1" stop-color="rgb(52.183533%, 27.445984%, 72.715759%)" offset="0.300781"/><stop stop-opacity="1" stop-color="rgb(51.849365%, 27.166748%, 72.361755%)" offset="0.304688"/><stop stop-opacity="1" stop-color="rgb(51.513672%, 26.885986%, 72.006226%)" offset="0.308594"/><stop stop-opacity="1" stop-color="rgb(51.177979%, 26.60675%, 71.652222%)" offset="0.3125"/><stop stop-opacity="1" stop-color="rgb(50.842285%, 26.327515%, 71.298218%)" offset="0.316406"/><stop stop-opacity="1" stop-color="rgb(50.508118%, 26.048279%, 70.944214%)" offset="0.320313"/><stop stop-opacity="1" stop-color="rgb(50.172424%, 25.767517%, 70.588684%)" offset="0.324219"/><stop stop-opacity="1" stop-color="rgb(49.836731%, 25.488281%, 70.23468%)" offset="0.328125"/><stop stop-opacity="1" stop-color="rgb(49.501038%, 25.20752%, 69.880676%)" offset="0.332031"/><stop stop-opacity="1" stop-color="rgb(49.16687%, 24.928284%, 69.526672%)" offset="0.335938"/><stop stop-opacity="1" stop-color="rgb(48.831177%, 24.647522%, 69.172668%)" offset="0.339844"/><stop stop-opacity="1" stop-color="rgb(48.497009%, 24.368286%, 68.818665%)" offset="0.34375"/><stop stop-opacity="1" stop-color="rgb(48.161316%, 24.087524%, 68.463135%)" offset="0.347656"/><stop stop-opacity="1" stop-color="rgb(47.825623%, 23.808289%, 68.109131%)" offset="0.351563"/><stop stop-opacity="1" stop-color="rgb(47.489929%, 23.527527%, 67.755127%)" offset="0.355469"/><stop stop-opacity="1" stop-color="rgb(47.155762%, 23.248291%, 67.401123%)" offset="0.359375"/><stop stop-opacity="1" stop-color="rgb(46.820068%, 22.967529%, 67.045593%)" offset="0.363281"/><stop stop-opacity="1" stop-color="rgb(46.484375%, 22.688293%, 66.691589%)" offset="0.367188"/><stop stop-opacity="1" stop-color="rgb(46.148682%, 22.409058%, 66.337585%)" offset="0.371094"/><stop stop-opacity="1" stop-color="rgb(45.814514%, 22.129822%, 65.983582%)" offset="0.375"/><stop stop-opacity="1" stop-color="rgb(45.478821%, 21.84906%, 65.628052%)" offset="0.378906"/><stop stop-opacity="1" stop-color="rgb(45.143127%, 21.569824%, 65.274048%)" offset="0.382813"/><stop stop-opacity="1" stop-color="rgb(44.807434%, 21.289062%, 64.920044%)" offset="0.386719"/><stop stop-opacity="1" stop-color="rgb(44.473267%, 21.009827%, 64.56604%)" offset="0.390625"/><stop stop-opacity="1" stop-color="rgb(44.137573%, 20.729065%, 64.212036%)" offset="0.394531"/><stop stop-opacity="1" stop-color="rgb(43.80188%, 20.449829%, 63.858032%)" offset="0.398438"/><stop stop-opacity="1" stop-color="rgb(43.466187%, 20.169067%, 63.502502%)" offset="0.402344"/><stop stop-opacity="1" stop-color="rgb(43.132019%, 19.889832%, 63.148499%)" offset="0.40625"/><stop stop-opacity="1" stop-color="rgb(42.796326%, 19.60907%, 62.794495%)" offset="0.410156"/><stop stop-opacity="1" stop-color="rgb(42.462158%, 19.329834%, 62.440491%)" offset="0.414063"/><stop stop-opacity="1" stop-color="rgb(42.126465%, 19.049072%, 62.084961%)" offset="0.417969"/><stop stop-opacity="1" stop-color="rgb(41.790771%, 18.769836%, 61.730957%)" offset="0.421875"/><stop stop-opacity="1" stop-color="rgb(41.455078%, 18.489075%, 61.376953%)" offset="0.425781"/><stop stop-opacity="1" stop-color="rgb(41.120911%, 18.209839%, 61.022949%)" offset="0.429688"/><stop stop-opacity="1" stop-color="rgb(40.785217%, 17.930603%, 60.667419%)" offset="0.433594"/><stop stop-opacity="1" stop-color="rgb(40.449524%, 17.651367%, 60.313416%)" offset="0.4375"/><stop stop-opacity="1" stop-color="rgb(40.113831%, 17.370605%, 59.959412%)" offset="0.441406"/><stop stop-opacity="1" stop-color="rgb(39.779663%, 17.09137%, 59.605408%)" offset="0.445313"/><stop stop-opacity="1" stop-color="rgb(39.44397%, 16.810608%, 59.251404%)" offset="0.449219"/><stop stop-opacity="1" stop-color="rgb(39.108276%, 16.531372%, 58.8974%)" offset="0.453125"/><stop stop-opacity="1" stop-color="rgb(38.772583%, 16.25061%, 58.54187%)" offset="0.457031"/><stop stop-opacity="1" stop-color="rgb(38.438416%, 15.971375%, 58.187866%)" offset="0.460938"/><stop stop-opacity="1" stop-color="rgb(38.102722%, 15.690613%, 57.833862%)" offset="0.464844"/><stop stop-opacity="1" stop-color="rgb(37.768555%, 15.411377%, 57.479858%)" offset="0.46875"/><stop stop-opacity="1" stop-color="rgb(37.432861%, 15.130615%, 57.124329%)" offset="0.472656"/><stop stop-opacity="1" stop-color="rgb(37.097168%, 14.851379%, 56.770325%)" offset="0.476563"/><stop stop-opacity="1" stop-color="rgb(36.761475%, 14.570618%, 56.416321%)" offset="0.480469"/><stop stop-opacity="1" stop-color="rgb(36.427307%, 14.291382%, 56.062317%)" offset="0.484375"/><stop stop-opacity="1" stop-color="rgb(36.091614%, 14.012146%, 55.706787%)" offset="0.488281"/><stop stop-opacity="1" stop-color="rgb(35.75592%, 13.73291%, 55.352783%)" offset="0.492188"/><stop stop-opacity="1" stop-color="rgb(35.420227%, 13.452148%, 54.998779%)" offset="0.496094"/><stop stop-opacity="1" stop-color="rgb(35.08606%, 13.172913%, 54.644775%)" offset="0.5"/><stop stop-opacity="1" stop-color="rgb(34.750366%, 12.892151%, 54.290771%)" offset="0.503906"/><stop stop-opacity="1" stop-color="rgb(34.414673%, 12.612915%, 53.936768%)" offset="0.507813"/><stop stop-opacity="1" stop-color="rgb(34.078979%, 12.332153%, 53.581238%)" offset="0.511719"/><stop stop-opacity="1" stop-color="rgb(33.744812%, 12.052917%, 53.227234%)" offset="0.515625"/><stop stop-opacity="1" stop-color="rgb(33.409119%, 11.772156%, 52.87323%)" offset="0.519531"/><stop stop-opacity="1" stop-color="rgb(33.074951%, 11.49292%, 52.519226%)" offset="0.523438"/><stop stop-opacity="1" stop-color="rgb(32.739258%, 11.212158%, 52.163696%)" offset="0.527344"/><stop stop-opacity="1" stop-color="rgb(32.403564%, 10.932922%, 51.809692%)" offset="0.53125"/><stop stop-opacity="1" stop-color="rgb(32.067871%, 10.652161%, 51.455688%)" offset="0.535156"/><stop stop-opacity="1" stop-color="rgb(31.733704%, 10.372925%, 51.101685%)" offset="0.539062"/><stop stop-opacity="1" stop-color="rgb(31.39801%, 10.092163%, 50.746155%)" offset="0.542969"/><stop stop-opacity="1" stop-color="rgb(31.062317%, 9.812927%, 50.392151%)" offset="0.546875"/><stop stop-opacity="1" stop-color="rgb(30.726624%, 9.533691%, 50.038147%)" offset="0.550781"/><stop stop-opacity="1" stop-color="rgb(30.392456%, 9.254456%, 49.684143%)" offset="0.554688"/><stop stop-opacity="1" stop-color="rgb(30.056763%, 8.973694%, 49.330139%)" offset="0.558594"/><stop stop-opacity="1" stop-color="rgb(29.721069%, 8.694458%, 48.976135%)" offset="0.5625"/><stop stop-opacity="1" stop-color="rgb(29.385376%, 8.413696%, 48.620605%)" offset="0.566406"/><stop stop-opacity="1" stop-color="rgb(29.051208%, 8.13446%, 48.266602%)" offset="0.570312"/><stop stop-opacity="1" stop-color="rgb(28.715515%, 7.853699%, 47.912598%)" offset="0.574219"/><stop stop-opacity="1" stop-color="rgb(28.381348%, 7.574463%, 47.558594%)" offset="0.578125"/><stop stop-opacity="1" stop-color="rgb(28.045654%, 7.293701%, 47.203064%)" offset="0.582031"/><stop stop-opacity="1" stop-color="rgb(27.709961%, 7.014465%, 46.84906%)" offset="0.585937"/><stop stop-opacity="1" stop-color="rgb(27.374268%, 6.733704%, 46.495056%)" offset="0.589844"/><stop stop-opacity="1" stop-color="rgb(27.0401%, 6.454468%, 46.141052%)" offset="0.59375"/><stop stop-opacity="1" stop-color="rgb(26.704407%, 6.173706%, 45.785522%)" offset="0.597656"/><stop stop-opacity="1" stop-color="rgb(26.368713%, 5.89447%, 45.431519%)" offset="0.601563"/><stop stop-opacity="1" stop-color="rgb(26.03302%, 5.615234%, 45.077515%)" offset="0.605469"/><stop stop-opacity="1" stop-color="rgb(25.698853%, 5.335999%, 44.723511%)" offset="0.609375"/><stop stop-opacity="1" stop-color="rgb(25.363159%, 5.055237%, 44.369507%)" offset="0.613281"/><stop stop-opacity="1" stop-color="rgb(25.027466%, 4.776001%, 44.015503%)" offset="0.617188"/><stop stop-opacity="1" stop-color="rgb(24.691772%, 4.495239%, 43.659973%)" offset="0.621094"/><stop stop-opacity="1" stop-color="rgb(24.357605%, 4.216003%, 43.305969%)" offset="0.625"/><stop stop-opacity="1" stop-color="rgb(24.021912%, 3.935242%, 42.951965%)" offset="0.628906"/><stop stop-opacity="1" stop-color="rgb(23.686218%, 3.656006%, 42.597961%)" offset="0.632812"/><stop stop-opacity="1" stop-color="rgb(24.021912%, 3.935242%, 42.951965%)" offset="0.636719"/><stop stop-opacity="1" stop-color="rgb(24.357605%, 4.216003%, 43.307495%)" offset="0.640625"/><stop stop-opacity="1" stop-color="rgb(24.954224%, 4.71344%, 43.937683%)" offset="0.644531"/><stop stop-opacity="1" stop-color="rgb(25.550842%, 5.212402%, 44.567871%)" offset="0.648438"/><stop stop-opacity="1" stop-color="rgb(26.147461%, 5.709839%, 45.198059%)" offset="0.652344"/><stop stop-opacity="1" stop-color="rgb(26.74408%, 6.207275%, 45.828247%)" offset="0.65625"/><stop stop-opacity="1" stop-color="rgb(27.339172%, 6.704712%, 46.458435%)" offset="0.660156"/><stop stop-opacity="1" stop-color="rgb(27.935791%, 7.203674%, 47.088623%)" offset="0.664062"/><stop stop-opacity="1" stop-color="rgb(28.53241%, 7.701111%, 47.718811%)" offset="0.667969"/><stop stop-opacity="1" stop-color="rgb(29.129028%, 8.198547%, 48.348999%)" offset="0.671875"/><stop stop-opacity="1" stop-color="rgb(29.724121%, 8.695984%, 48.979187%)" offset="0.675781"/><stop stop-opacity="1" stop-color="rgb(30.32074%, 9.194946%, 49.609375%)" offset="0.679687"/><stop stop-opacity="1" stop-color="rgb(30.917358%, 9.692383%, 50.239563%)" offset="0.683594"/><stop stop-opacity="1" stop-color="rgb(31.513977%, 10.189819%, 50.869751%)" offset="0.6875"/><stop stop-opacity="1" stop-color="rgb(32.110596%, 10.687256%, 51.499939%)" offset="0.691406"/><stop stop-opacity="1" stop-color="rgb(32.707214%, 11.186218%, 52.130127%)" offset="0.695313"/><stop stop-opacity="1" stop-color="rgb(33.302307%, 11.683655%, 52.760315%)" offset="0.699219"/><stop stop-opacity="1" stop-color="rgb(33.898926%, 12.182617%, 53.390503%)" offset="0.703125"/><stop stop-opacity="1" stop-color="rgb(34.495544%, 12.680054%, 54.020691%)" offset="0.707031"/><stop stop-opacity="1" stop-color="rgb(35.092163%, 13.17749%, 54.650879%)" offset="0.710938"/><stop stop-opacity="1" stop-color="rgb(35.688782%, 13.674927%, 55.281067%)" offset="0.714844"/><stop stop-opacity="1" stop-color="rgb(36.2854%, 14.173889%, 55.911255%)" offset="0.71875"/><stop stop-opacity="1" stop-color="rgb(36.880493%, 14.671326%, 56.541443%)" offset="0.722656"/><stop stop-opacity="1" stop-color="rgb(37.477112%, 15.168762%, 57.173157%)" offset="0.726562"/><stop stop-opacity="1" stop-color="rgb(38.07373%, 15.666199%, 57.803345%)" offset="0.730469"/><stop stop-opacity="1" stop-color="rgb(38.670349%, 16.165161%, 58.433533%)" offset="0.734375"/><stop stop-opacity="1" stop-color="rgb(39.265442%, 16.662598%, 59.063721%)" offset="0.738281"/><stop stop-opacity="1" stop-color="rgb(39.862061%, 17.160034%, 59.693909%)" offset="0.742188"/><stop stop-opacity="1" stop-color="rgb(40.458679%, 17.657471%, 60.324097%)" offset="0.746094"/><stop stop-opacity="1" stop-color="rgb(41.055298%, 18.156433%, 60.954285%)" offset="0.75"/><stop stop-opacity="1" stop-color="rgb(41.651917%, 18.65387%, 61.584473%)" offset="0.753906"/><stop stop-opacity="1" stop-color="rgb(42.248535%, 19.151306%, 62.214661%)" offset="0.757812"/><stop stop-opacity="1" stop-color="rgb(42.843628%, 19.648743%, 62.844849%)" offset="0.761719"/><stop stop-opacity="1" stop-color="rgb(43.440247%, 20.147705%, 63.475037%)" offset="0.765625"/><stop stop-opacity="1" stop-color="rgb(44.036865%, 20.645142%, 64.105225%)" offset="0.769531"/><stop stop-opacity="1" stop-color="rgb(44.633484%, 21.142578%, 64.735413%)" offset="0.773438"/><stop stop-opacity="1" stop-color="rgb(45.230103%, 21.640015%, 65.365601%)" offset="0.777344"/><stop stop-opacity="1" stop-color="rgb(45.826721%, 22.138977%, 65.995789%)" offset="0.78125"/><stop stop-opacity="1" stop-color="rgb(46.421814%, 22.636414%, 66.625977%)" offset="0.785156"/><stop stop-opacity="1" stop-color="rgb(47.018433%, 23.135376%, 67.256165%)" offset="0.789063"/><stop stop-opacity="1" stop-color="rgb(47.615051%, 23.632812%, 67.886353%)" offset="0.792969"/><stop stop-opacity="1" stop-color="rgb(48.21167%, 24.130249%, 68.516541%)" offset="0.796875"/><stop stop-opacity="1" stop-color="rgb(48.806763%, 24.627686%, 69.146729%)" offset="0.800781"/><stop stop-opacity="1" stop-color="rgb(49.403381%, 25.126648%, 69.776917%)" offset="0.804688"/><stop stop-opacity="1" stop-color="rgb(50%, 25.624084%, 70.407104%)" offset="0.808594"/><stop stop-opacity="1" stop-color="rgb(50.596619%, 26.121521%, 71.037292%)" offset="0.8125"/><stop stop-opacity="1" stop-color="rgb(51.193237%, 26.618958%, 71.66748%)" offset="0.816406"/><stop stop-opacity="1" stop-color="rgb(51.789856%, 27.11792%, 72.299194%)" offset="0.820312"/><stop stop-opacity="1" stop-color="rgb(52.384949%, 27.615356%, 72.929382%)" offset="0.824219"/><stop stop-opacity="1" stop-color="rgb(52.981567%, 28.112793%, 73.55957%)" offset="0.828125"/><stop stop-opacity="1" stop-color="rgb(53.578186%, 28.610229%, 74.189758%)" offset="0.832031"/><stop stop-opacity="1" stop-color="rgb(54.174805%, 29.109192%, 74.819946%)" offset="0.835938"/><stop stop-opacity="1" stop-color="rgb(54.771423%, 29.606628%, 75.450134%)" offset="0.839844"/><stop stop-opacity="1" stop-color="rgb(55.368042%, 30.104065%, 76.080322%)" offset="0.84375"/><stop stop-opacity="1" stop-color="rgb(55.963135%, 30.601501%, 76.71051%)" offset="0.847656"/><stop stop-opacity="1" stop-color="rgb(56.559753%, 31.100464%, 77.340698%)" offset="0.851562"/><stop stop-opacity="1" stop-color="rgb(57.156372%, 31.5979%, 77.970886%)" offset="0.855469"/><stop stop-opacity="1" stop-color="rgb(57.752991%, 32.095337%, 78.601074%)" offset="0.859375"/><stop stop-opacity="1" stop-color="rgb(58.348083%, 32.592773%, 79.231262%)" offset="0.863281"/><stop stop-opacity="1" stop-color="rgb(58.944702%, 33.091736%, 79.86145%)" offset="0.867188"/><stop stop-opacity="1" stop-color="rgb(59.541321%, 33.589172%, 80.491638%)" offset="0.871094"/><stop stop-opacity="1" stop-color="rgb(60.137939%, 34.088135%, 81.121826%)" offset="0.875"/><stop stop-opacity="1" stop-color="rgb(60.734558%, 34.585571%, 81.752014%)" offset="0.878906"/><stop stop-opacity="1" stop-color="rgb(61.331177%, 35.083008%, 82.382202%)" offset="0.882813"/><stop stop-opacity="1" stop-color="rgb(61.92627%, 35.580444%, 83.01239%)" offset="0.886719"/><stop stop-opacity="1" stop-color="rgb(62.522888%, 36.079407%, 83.642578%)" offset="0.890625"/><stop stop-opacity="1" stop-color="rgb(63.119507%, 36.576843%, 84.272766%)" offset="0.894531"/><stop stop-opacity="1" stop-color="rgb(63.716125%, 37.07428%, 84.902954%)" offset="0.898438"/><stop stop-opacity="1" stop-color="rgb(64.312744%, 37.571716%, 85.533142%)" offset="0.902344"/><stop stop-opacity="1" stop-color="rgb(64.909363%, 38.070679%, 86.16333%)" offset="0.90625"/><stop stop-opacity="1" stop-color="rgb(65.504456%, 38.568115%, 86.793518%)" offset="0.910156"/><stop stop-opacity="1" stop-color="rgb(66.101074%, 39.065552%, 87.425232%)" offset="0.914062"/><stop stop-opacity="1" stop-color="rgb(66.697693%, 39.562988%, 88.05542%)" offset="0.917969"/><stop stop-opacity="1" stop-color="rgb(67.294312%, 40.061951%, 88.685608%)" offset="0.921875"/><stop stop-opacity="1" stop-color="rgb(67.889404%, 40.559387%, 89.315796%)" offset="0.925781"/><stop stop-opacity="1" stop-color="rgb(68.486023%, 41.056824%, 89.945984%)" offset="0.929688"/><stop stop-opacity="1" stop-color="rgb(69.082642%, 41.55426%, 90.576172%)" offset="0.933594"/><stop stop-opacity="1" stop-color="rgb(69.67926%, 42.053223%, 91.20636%)" offset="0.9375"/><stop stop-opacity="1" stop-color="rgb(70.275879%, 42.550659%, 91.836548%)" offset="0.941406"/><stop stop-opacity="1" stop-color="rgb(70.872498%, 43.049622%, 92.466736%)" offset="0.945312"/><stop stop-opacity="1" stop-color="rgb(71.46759%, 43.547058%, 93.096924%)" offset="0.949219"/><stop stop-opacity="1" stop-color="rgb(72.064209%, 44.044495%, 93.727112%)" offset="0.953125"/><stop stop-opacity="1" stop-color="rgb(72.660828%, 44.541931%, 94.3573%)" offset="0.957031"/><stop stop-opacity="1" stop-color="rgb(73.257446%, 45.040894%, 94.987488%)" offset="0.960938"/><stop stop-opacity="1" stop-color="rgb(73.852539%, 45.53833%, 95.617676%)" offset="0.964844"/><stop stop-opacity="1" stop-color="rgb(74.449158%, 46.035767%, 96.247864%)" offset="0.96875"/><stop stop-opacity="1" stop-color="rgb(75.045776%, 46.533203%, 96.878052%)" offset="0.972656"/><stop stop-opacity="1" stop-color="rgb(75.642395%, 47.032166%, 97.50824%)" offset="0.976563"/><stop stop-opacity="1" stop-color="rgb(76.239014%, 47.529602%, 98.138428%)" offset="0.980469"/><stop stop-opacity="1" stop-color="rgb(76.835632%, 48.027039%, 98.768616%)" offset="0.984375"/><stop stop-opacity="1" stop-color="rgb(77.416992%, 48.512268%, 99.383545%)" offset="0.988281"/><stop stop-opacity="1" stop-color="rgb(77.999878%, 48.999023%, 100%)" offset="0.992188"/><stop stop-opacity="1" stop-color="rgb(77.999878%, 48.999023%, 100%)" offset="1"/></linearGradient><clipPath id="id4"><path d="M 58.261719 58.261719 L 746.761719 58.261719 L 746.761719 746.761719 L 58.261719 746.761719 Z M 58.261719 58.261719 " clip-rule="nonzero"/></clipPath><clipPath id="id5"><path d="M 514 213 L 628.242188 213 L 628.242188 305 L 514 305 Z M 514 213 " clip-rule="nonzero"/></clipPath><clipPath id="id6"><path d="M 342 467 L 498 467 L 498 598.734375 L 342 598.734375 Z M 342 467 " clip-rule="nonzero"/></clipPath></defs><g clip-path="url(#id1)"><g clip-path="url(#id2)"><path fill="url(#id3)" d="M 793.242188 16.992188 L 16.992188 16.992188 L 16.992188 793.242188 L 793.242188 793.242188 Z M 793.242188 16.992188 " fill-rule="nonzero"/></g></g><g clip-path="url(#id4)"><path fill="rgb(100%, 100%, 100%)" d="M 402.511719 92.6875 C 573.363281 92.6875 712.339844 231.660156 712.339844 402.511719 C 712.339844 573.363281 573.363281 712.339844 402.511719 712.339844 C 231.660156 712.339844 92.6875 573.363281 92.6875 402.511719 C 92.6875 231.660156 231.660156 92.6875 402.511719 92.6875 M 402.511719 58.261719 C 212.382812 58.261719 58.261719 212.382812 58.261719 402.511719 C 58.261719 592.640625 212.382812 746.761719 402.511719 746.761719 C 592.640625 746.761719 746.761719 592.640625 746.761719 402.511719 C 746.761719 212.382812 592.640625 58.261719 402.511719 58.261719 Z M 402.511719 58.261719 " fill-opacity="1" fill-rule="nonzero"/></g><path fill="rgb(100%, 100%, 100%)" d="M 230.128906 395.558594 L 224.636719 395.765625 L 230.128906 395.582031 L 230.128906 395.558594 L 224.636719 395.765625 L 230.128906 395.582031 C 230.128906 395.570312 230.117188 395.09375 230.117188 394.222656 C 230.117188 391.664062 230.253906 385.734375 231.28125 378.300781 C 232.050781 372.730469 233.316406 366.320312 235.339844 359.890625 C 236.847656 355.070312 238.785156 350.242188 241.199219 345.726562 C 244.832031 338.941406 249.507812 332.90625 255.511719 328.261719 C 258.523438 325.929688 261.875 323.921875 265.722656 322.300781 C 269.5625 320.6875 273.90625 319.453125 278.902344 318.742188 C 281.695312 318.347656 284.328125 318.164062 286.832031 318.164062 C 292.355469 318.164062 297.246094 319.039062 301.742188 320.539062 C 305.671875 321.855469 309.296875 323.664062 312.699219 325.894531 C 318.640625 329.78125 323.867188 334.964844 328.320312 340.699219 C 335.007812 349.285156 339.855469 359.050781 342.910156 366.570312 C 344.445312 370.324219 345.539062 373.519531 346.234375 375.726562 C 346.582031 376.832031 346.824219 377.675781 346.984375 378.230469 C 347.058594 378.507812 347.117188 378.707031 347.148438 378.828125 L 347.179688 378.941406 L 347.179688 378.953125 L 351.476562 377.859375 L 347.179688 378.941406 L 347.179688 378.953125 L 351.476562 377.859375 L 347.179688 378.941406 L 355.449219 376.863281 L 347.179688 378.933594 L 347.179688 378.941406 L 355.449219 376.863281 L 347.179688 378.933594 L 358.210938 376.175781 L 347.171875 378.925781 L 347.179688 378.933594 L 358.210938 376.175781 L 347.171875 378.925781 C 348.820312 385.519531 355.511719 389.53125 362.113281 387.886719 C 368.714844 386.234375 372.730469 379.554688 371.085938 372.960938 C 370.992188 372.597656 369.769531 367.777344 367.050781 360.625 C 365.011719 355.257812 362.125 348.582031 358.191406 341.476562 C 352.28125 330.839844 344.042969 319.15625 332.347656 309.769531 C 326.507812 305.085938 319.78125 301.011719 312.152344 298.117188 C 304.53125 295.222656 296.015625 293.542969 286.832031 293.546875 C 283.128906 293.546875 279.332031 293.816406 275.441406 294.371094 C 267.148438 295.542969 259.628906 297.847656 252.953125 301.058594 C 247.113281 303.863281 241.929688 307.347656 237.410156 311.273438 C 229.476562 318.144531 223.585938 326.308594 219.199219 334.640625 C 212.617188 347.152344 209.289062 360.097656 207.484375 370.871094 C 205.699219 381.652344 205.472656 390.289062 205.46875 394.222656 C 205.46875 395.550781 205.5 396.34375 205.507812 396.488281 C 205.757812 403.273438 211.476562 408.578125 218.28125 408.324219 C 225.082031 408.066406 230.386719 402.351562 230.128906 395.558594 " fill-opacity="1" fill-rule="nonzero"/><path fill="rgb(100%, 100%, 100%)" d="M 618.925781 396.488281 C 618.925781 396.34375 618.957031 395.550781 618.957031 394.214844 C 618.957031 390.785156 618.78125 383.792969 617.554688 374.921875 C 616.636719 368.273438 615.128906 360.570312 612.601562 352.515625 C 610.707031 346.472656 608.230469 340.234375 604.960938 334.117188 C 600.058594 324.953125 593.308594 316 584.023438 308.804688 C 579.390625 305.214844 574.136719 302.085938 568.289062 299.617188 C 562.4375 297.15625 555.992188 295.363281 549.003906 294.371094 C 545.105469 293.816406 541.308594 293.546875 537.613281 293.546875 C 529.445312 293.546875 521.800781 294.867188 514.855469 297.203125 C 508.769531 299.234375 503.21875 302.035156 498.214844 305.3125 C 489.460938 311.050781 482.382812 318.222656 476.636719 325.613281 C 468.03125 336.707031 462.347656 348.339844 458.6875 357.292969 C 455.042969 366.246094 453.453125 372.542969 453.347656 372.960938 C 451.691406 379.554688 455.710938 386.234375 462.316406 387.886719 C 468.917969 389.53125 475.605469 385.519531 477.257812 378.925781 L 469.917969 377.101562 L 477.246094 378.945312 L 477.257812 378.925781 L 469.917969 377.101562 L 477.246094 378.945312 L 477.257812 378.921875 C 477.359375 378.511719 478.503906 374.199219 480.910156 368.078125 C 482.714844 363.488281 485.222656 357.886719 488.484375 352.167969 C 493.375 343.574219 499.976562 334.804688 508.074219 328.519531 C 512.121094 325.359375 516.527344 322.792969 521.367188 321.003906 C 526.222656 319.214844 531.535156 318.171875 537.613281 318.164062 C 540.109375 318.164062 542.75 318.347656 545.53125 318.742188 C 551.453125 319.585938 556.453125 321.160156 560.796875 323.246094 C 564.597656 325.066406 567.910156 327.292969 570.871094 329.855469 C 576.046875 334.339844 580.171875 339.914062 583.425781 346.097656 C 588.316406 355.339844 591.144531 365.894531 592.621094 374.882812 C 594.125 383.875 594.3125 391.277344 594.308594 394.214844 C 594.308594 394.71875 594.308594 395.085938 594.300781 395.3125 L 594.296875 395.550781 L 594.296875 395.582031 L 599.808594 395.765625 L 594.296875 395.558594 L 594.296875 395.582031 L 599.808594 395.765625 L 594.296875 395.558594 C 594.039062 402.351562 599.34375 408.066406 606.144531 408.324219 C 612.945312 408.578125 618.667969 403.28125 618.925781 396.488281 " fill-opacity="1" fill-rule="nonzero"/><path fill="rgb(100%, 100%, 100%)" d="M 281.476562 215.382812 C 267.191406 217.007812 201.375 240 182.050781 302.882812 C 206.027344 253.007812 290.0625 245.953125 296.171875 246.101562 C 302.277344 246.242188 295.75 213.757812 281.476562 215.382812 " fill-opacity="1" fill-rule="nonzero"/><g clip-path="url(#id5)"><path fill="rgb(100%, 100%, 100%)" d="M 532.453125 213.492188 C 546.652344 215.691406 611.511719 241.242188 628.339844 304.824219 C 606.359375 254.058594 522.664062 243.699219 516.554688 243.609375 C 510.4375 243.507812 518.238281 211.308594 532.453125 213.492188 " fill-opacity="1" fill-rule="nonzero"/></g><g clip-path="url(#id6)"><path fill="rgb(100%, 100%, 100%)" d="M 497.25 467.03125 C 497.25 515.71875 462.710938 598.417969 420.097656 598.417969 C 377.488281 598.417969 342.949219 515.71875 342.949219 467.03125 L 497.25 467.03125 " fill-opacity="1" fill-rule="nonzero"/></g><path fill="rgb(85.099792%, 23.139954%, 35.289001%)" d="M 364.597656 526.90625 C 376.152344 558.914062 396.652344 588.4375 420.097656 588.4375 C 443.546875 588.4375 464.046875 558.914062 475.605469 526.90625 C 475.605469 526.90625 458.394531 508.058594 420.097656 508.058594 C 381.800781 508.058594 364.597656 526.90625 364.597656 526.90625 " fill-opacity="1" fill-rule="nonzero"/></svg>