<svg xmlns="http://www.w3.org/2000/svg" xmlns:xlink="http://www.w3.org/1999/xlink" width="1080" zoomAndPan="magnify" viewBox="0 0 810 809.999993" height="1080" preserveAspectRatio="xMidYMid meet" version="1.0"><defs><clipPath id="id1"><path d="M 33.988281 33.988281 L 775.738281 33.988281 L 775.738281 775.738281 L 33.988281 775.738281 Z M 33.988281 33.988281 " clip-rule="nonzero"/></clipPath><clipPath id="id2"><path d="M 775.738281 404.863281 C 775.738281 410.929688 775.585938 416.996094 775.289062 423.058594 C 774.992188 429.121094 774.546875 435.171875 773.949219 441.214844 C 773.355469 447.253906 772.613281 453.277344 771.722656 459.28125 C 770.832031 465.285156 769.792969 471.261719 768.609375 477.214844 C 767.425781 483.167969 766.097656 489.089844 764.621094 494.976562 C 763.148438 500.863281 761.527344 506.710938 759.765625 512.519531 C 758.003906 518.328125 756.101562 524.089844 754.058594 529.804688 C 752.011719 535.519531 749.828125 541.183594 747.503906 546.789062 C 745.183594 552.398438 742.722656 557.945312 740.128906 563.429688 C 737.535156 568.917969 734.804688 574.339844 731.945312 579.691406 C 729.082031 585.042969 726.09375 590.324219 722.972656 595.53125 C 719.851562 600.734375 716.605469 605.863281 713.234375 610.910156 C 709.859375 615.957031 706.367188 620.917969 702.75 625.792969 C 699.136719 630.667969 695.402344 635.449219 691.550781 640.140625 C 687.703125 644.835938 683.738281 649.429688 679.660156 653.925781 C 675.585938 658.421875 671.402344 662.816406 667.109375 667.109375 C 662.816406 671.402344 658.421875 675.585938 653.925781 679.660156 C 649.429688 683.738281 644.835938 687.703125 640.140625 691.550781 C 635.449219 695.402344 630.667969 699.136719 625.792969 702.75 C 620.917969 706.367188 615.957031 709.859375 610.910156 713.234375 C 605.863281 716.605469 600.734375 719.851562 595.53125 722.972656 C 590.324219 726.09375 585.042969 729.082031 579.691406 731.945312 C 574.339844 734.804688 568.917969 737.535156 563.429688 740.128906 C 557.945312 742.722656 552.398438 745.183594 546.789062 747.503906 C 541.183594 749.828125 535.519531 752.011719 529.804688 754.058594 C 524.089844 756.101562 518.328125 758.003906 512.519531 759.765625 C 506.710938 761.527344 500.863281 763.148438 494.976562 764.621094 C 489.089844 766.097656 483.167969 767.425781 477.214844 768.609375 C 471.261719 769.792969 465.285156 770.832031 459.28125 771.722656 C 453.277344 772.613281 447.253906 773.355469 441.214844 773.949219 C 435.171875 774.546875 429.121094 774.992188 423.058594 775.289062 C 416.996094 775.589844 410.929688 775.738281 404.863281 775.738281 C 398.792969 775.738281 392.726562 775.589844 386.664062 775.289062 C 380.601562 774.992188 374.550781 774.546875 368.507812 773.949219 C 362.46875 773.355469 356.445312 772.613281 350.441406 771.722656 C 344.4375 770.832031 338.460938 769.792969 332.507812 768.609375 C 326.554688 767.425781 320.632812 766.097656 314.746094 764.621094 C 308.859375 763.148438 303.011719 761.527344 297.203125 759.765625 C 291.394531 758.003906 285.632812 756.101562 279.917969 754.058594 C 274.203125 752.011719 268.542969 749.828125 262.933594 747.503906 C 257.328125 745.183594 251.777344 742.722656 246.292969 740.128906 C 240.804688 737.535156 235.386719 734.804688 230.03125 731.945312 C 224.679688 729.082031 219.398438 726.09375 214.195312 722.972656 C 208.988281 719.851562 203.863281 716.605469 198.816406 713.234375 C 193.769531 709.859375 188.808594 706.367188 183.933594 702.75 C 179.058594 699.136719 174.273438 695.402344 169.582031 691.550781 C 164.890625 687.703125 160.292969 683.738281 155.796875 679.660156 C 151.300781 675.585938 146.90625 671.402344 142.613281 667.109375 C 138.320312 662.816406 134.136719 658.421875 130.0625 653.925781 C 125.984375 649.429688 122.023438 644.835938 118.171875 640.140625 C 114.320312 635.449219 110.589844 630.667969 106.972656 625.792969 C 103.355469 620.917969 99.863281 615.957031 96.492188 610.910156 C 93.117188 605.863281 89.871094 600.734375 86.75 595.53125 C 83.632812 590.324219 80.640625 585.042969 77.777344 579.691406 C 74.917969 574.339844 72.191406 568.917969 69.59375 563.429688 C 67 557.945312 64.539062 552.398438 62.21875 546.789062 C 59.894531 541.183594 57.710938 535.519531 55.667969 529.804688 C 53.621094 524.089844 51.71875 518.328125 49.957031 512.519531 C 48.195312 506.710938 46.578125 500.863281 45.101562 494.976562 C 43.625 489.089844 42.296875 483.167969 41.113281 477.214844 C 39.929688 471.261719 38.890625 465.285156 38 459.28125 C 37.109375 453.277344 36.367188 447.253906 35.773438 441.214844 C 35.179688 435.171875 34.730469 429.121094 34.433594 423.058594 C 34.136719 416.996094 33.988281 410.929688 33.988281 404.863281 C 33.988281 398.792969 34.136719 392.726562 34.433594 386.664062 C 34.730469 380.601562 35.179688 374.550781 35.773438 368.507812 C 36.367188 362.46875 37.109375 356.445312 38 350.441406 C 38.890625 344.4375 39.929688 338.460938 41.113281 332.507812 C 42.296875 326.554688 43.625 320.632812 45.101562 314.746094 C 46.578125 308.859375 48.195312 303.011719 49.957031 297.203125 C 51.71875 291.394531 53.621094 285.632812 55.667969 279.917969 C 57.710938 274.203125 59.894531 268.542969 62.21875 262.933594 C 64.539062 257.328125 67 251.777344 69.59375 246.292969 C 72.191406 240.804688 74.917969 235.386719 77.777344 230.03125 C 80.640625 224.679688 83.632812 219.398438 86.75 214.195312 C 89.871094 208.988281 93.117188 203.863281 96.492188 198.816406 C 99.863281 193.769531 103.355469 188.808594 106.972656 183.933594 C 110.589844 179.058594 114.320312 174.273438 118.171875 169.582031 C 122.023438 164.890625 125.984375 160.292969 130.0625 155.796875 C 134.136719 151.300781 138.320312 146.90625 142.613281 142.613281 C 146.90625 138.320312 151.300781 134.136719 155.796875 130.0625 C 160.292969 125.984375 164.890625 122.023438 169.582031 118.171875 C 174.273438 114.320312 179.058594 110.589844 183.933594 106.972656 C 188.808594 103.355469 193.769531 99.863281 198.816406 96.492188 C 203.863281 93.117188 208.988281 89.871094 214.195312 86.75 C 219.398438 83.632812 224.679688 80.640625 230.03125 77.78125 C 235.386719 74.917969 240.804688 72.191406 246.292969 69.59375 C 251.777344 67 257.328125 64.539062 262.933594 62.21875 C 268.542969 59.894531 274.203125 57.710938 279.917969 55.667969 C 285.632812 53.621094 291.394531 51.71875 297.203125 49.957031 C 303.011719 48.195312 308.859375 46.578125 314.746094 45.101562 C 320.632812 43.625 326.554688 42.296875 332.507812 41.113281 C 338.460938 39.929688 344.4375 38.890625 350.441406 38 C 356.445312 37.109375 362.46875 36.367188 368.507812 35.773438 C 374.550781 35.179688 380.601562 34.730469 386.664062 34.433594 C 392.726562 34.136719 398.792969 33.988281 404.863281 33.988281 C 410.929688 33.988281 416.996094 34.136719 423.058594 34.433594 C 429.121094 34.730469 435.171875 35.179688 441.214844 35.773438 C 447.253906 36.367188 453.277344 37.109375 459.28125 38 C 465.285156 38.890625 471.261719 39.929688 477.214844 41.113281 C 483.167969 42.296875 489.089844 43.625 494.976562 45.101562 C 500.863281 46.578125 506.710938 48.195312 512.519531 49.957031 C 518.328125 51.71875 524.089844 53.621094 529.804688 55.667969 C 535.519531 57.710938 541.183594 59.894531 546.789062 62.21875 C 552.398438 64.539062 557.945312 67 563.429688 69.59375 C 568.917969 72.191406 574.339844 74.917969 579.691406 77.78125 C 585.042969 80.640625 590.324219 83.632812 595.53125 86.75 C 600.734375 89.871094 605.863281 93.117188 610.910156 96.492188 C 615.957031 99.863281 620.917969 103.355469 625.792969 106.972656 C 630.667969 110.589844 635.449219 114.320312 640.140625 118.171875 C 644.835938 122.023438 649.429688 125.984375 653.925781 130.0625 C 658.421875 134.136719 662.816406 138.320312 667.109375 142.613281 C 671.402344 146.90625 675.585938 151.300781 679.660156 155.796875 C 683.738281 160.292969 687.703125 164.890625 691.550781 169.582031 C 695.402344 174.273438 699.136719 179.058594 702.75 183.933594 C 706.367188 188.808594 709.859375 193.769531 713.234375 198.816406 C 716.605469 203.863281 719.851562 208.988281 722.972656 214.195312 C 726.09375 219.398438 729.082031 224.679688 731.945312 230.03125 C 734.804688 235.386719 737.535156 240.804688 740.128906 246.292969 C 742.722656 251.777344 745.183594 257.328125 747.503906 262.933594 C 749.828125 268.542969 752.011719 274.203125 754.058594 279.917969 C 756.101562 285.632812 758.003906 291.394531 759.765625 297.203125 C 761.527344 303.011719 763.148438 308.859375 764.621094 314.746094 C 766.097656 320.632812 767.425781 326.554688 768.609375 332.507812 C 769.792969 338.460938 770.832031 344.4375 771.722656 350.441406 C 772.613281 356.445312 773.355469 362.46875 773.949219 368.507812 C 774.546875 374.550781 774.992188 380.601562 775.289062 386.664062 C 775.585938 392.726562 775.738281 398.792969 775.738281 404.863281 Z M 775.738281 404.863281 " clip-rule="nonzero"/></clipPath><linearGradient x1="1770.926169" gradientTransform="matrix(0.000000000000000354, 5.781372, -5.781372, 0.000000000000000354, 1820.337888, -10204.395312)" y1="244.834" x2="1899.226165" gradientUnits="userSpaceOnUse" y2="244.834" xlink:type="simple" xlink:actuate="onLoad" id="id3" xlink:show="other"><stop stop-opacity="1" stop-color="rgb(23.498535%, 3.49884%, 42.399597%)" offset="0"/><stop stop-opacity="1" stop-color="rgb(23.602295%, 3.665161%, 42.541504%)" offset="0.0078125"/><stop stop-opacity="1" stop-color="rgb(23.81134%, 3.999329%, 42.825317%)" offset="0.015625"/><stop stop-opacity="1" stop-color="rgb(24.01886%, 4.33197%, 43.109131%)" offset="0.0234375"/><stop stop-opacity="1" stop-color="rgb(24.226379%, 4.666138%, 43.39447%)" offset="0.03125"/><stop stop-opacity="1" stop-color="rgb(24.435425%, 4.998779%, 43.678284%)" offset="0.0390625"/><stop stop-opacity="1" stop-color="rgb(24.642944%, 5.332947%, 43.962097%)" offset="0.046875"/><stop stop-opacity="1" stop-color="rgb(24.850464%, 5.665588%, 44.245911%)" offset="0.0546875"/><stop stop-opacity="1" stop-color="rgb(25.057983%, 5.999756%, 44.53125%)" offset="0.0625"/><stop stop-opacity="1" stop-color="rgb(25.267029%, 6.332397%, 44.815063%)" offset="0.0703125"/><stop stop-opacity="1" stop-color="rgb(25.474548%, 6.666565%, 45.098877%)" offset="0.078125"/><stop stop-opacity="1" stop-color="rgb(25.682068%, 6.999207%, 45.38269%)" offset="0.0859375"/><stop stop-opacity="1" stop-color="rgb(25.889587%, 7.333374%, 45.66803%)" offset="0.09375"/><stop stop-opacity="1" stop-color="rgb(26.098633%, 7.666016%, 45.951843%)" offset="0.101563"/><stop stop-opacity="1" stop-color="rgb(26.306152%, 8.000183%, 46.235657%)" offset="0.109375"/><stop stop-opacity="1" stop-color="rgb(26.513672%, 8.332825%, 46.51947%)" offset="0.117188"/><stop stop-opacity="1" stop-color="rgb(26.721191%, 8.666992%, 46.80481%)" offset="0.125"/><stop stop-opacity="1" stop-color="rgb(26.930237%, 8.999634%, 47.088623%)" offset="0.132812"/><stop stop-opacity="1" stop-color="rgb(27.137756%, 9.333801%, 47.372437%)" offset="0.140625"/><stop stop-opacity="1" stop-color="rgb(27.345276%, 9.666443%, 47.65625%)" offset="0.148438"/><stop stop-opacity="1" stop-color="rgb(27.554321%, 10.00061%, 47.941589%)" offset="0.15625"/><stop stop-opacity="1" stop-color="rgb(27.761841%, 10.333252%, 48.225403%)" offset="0.164062"/><stop stop-opacity="1" stop-color="rgb(27.96936%, 10.667419%, 48.509216%)" offset="0.171875"/><stop stop-opacity="1" stop-color="rgb(28.17688%, 11.000061%, 48.79303%)" offset="0.179687"/><stop stop-opacity="1" stop-color="rgb(28.385925%, 11.334229%, 49.078369%)" offset="0.1875"/><stop stop-opacity="1" stop-color="rgb(28.593445%, 11.66687%, 49.362183%)" offset="0.195312"/><stop stop-opacity="1" stop-color="rgb(28.800964%, 12.001038%, 49.645996%)" offset="0.203125"/><stop stop-opacity="1" stop-color="rgb(29.008484%, 12.333679%, 49.92981%)" offset="0.210937"/><stop stop-opacity="1" stop-color="rgb(29.217529%, 12.667847%, 50.215149%)" offset="0.21875"/><stop stop-opacity="1" stop-color="rgb(29.425049%, 13.000488%, 50.498962%)" offset="0.226562"/><stop stop-opacity="1" stop-color="rgb(29.632568%, 13.334656%, 50.782776%)" offset="0.234375"/><stop stop-opacity="1" stop-color="rgb(29.840088%, 13.668823%, 51.066589%)" offset="0.242187"/><stop stop-opacity="1" stop-color="rgb(30.049133%, 14.001465%, 51.351929%)" offset="0.25"/><stop stop-opacity="1" stop-color="rgb(30.256653%, 14.335632%, 51.635742%)" offset="0.257812"/><stop stop-opacity="1" stop-color="rgb(30.464172%, 14.668274%, 51.919556%)" offset="0.265625"/><stop stop-opacity="1" stop-color="rgb(30.671692%, 15.002441%, 52.203369%)" offset="0.273437"/><stop stop-opacity="1" stop-color="rgb(30.880737%, 15.335083%, 52.488708%)" offset="0.28125"/><stop stop-opacity="1" stop-color="rgb(31.088257%, 15.66925%, 52.772522%)" offset="0.289062"/><stop stop-opacity="1" stop-color="rgb(31.295776%, 16.001892%, 53.056335%)" offset="0.296875"/><stop stop-opacity="1" stop-color="rgb(31.504822%, 16.33606%, 53.340149%)" offset="0.304687"/><stop stop-opacity="1" stop-color="rgb(31.712341%, 16.668701%, 53.625488%)" offset="0.3125"/><stop stop-opacity="1" stop-color="rgb(31.919861%, 17.002869%, 53.909302%)" offset="0.320312"/><stop stop-opacity="1" stop-color="rgb(32.12738%, 17.33551%, 54.193115%)" offset="0.328125"/><stop stop-opacity="1" stop-color="rgb(32.336426%, 17.669678%, 54.478455%)" offset="0.335938"/><stop stop-opacity="1" stop-color="rgb(32.543945%, 18.002319%, 54.762268%)" offset="0.34375"/><stop stop-opacity="1" stop-color="rgb(32.751465%, 18.336487%, 55.046082%)" offset="0.351562"/><stop stop-opacity="1" stop-color="rgb(32.958984%, 18.669128%, 55.329895%)" offset="0.359375"/><stop stop-opacity="1" stop-color="rgb(33.16803%, 19.003296%, 55.615234%)" offset="0.367188"/><stop stop-opacity="1" stop-color="rgb(33.375549%, 19.335938%, 55.899048%)" offset="0.375"/><stop stop-opacity="1" stop-color="rgb(33.583069%, 19.670105%, 56.182861%)" offset="0.382812"/><stop stop-opacity="1" stop-color="rgb(33.790588%, 20.002747%, 56.466675%)" offset="0.390625"/><stop stop-opacity="1" stop-color="rgb(33.999634%, 20.336914%, 56.752014%)" offset="0.398438"/><stop stop-opacity="1" stop-color="rgb(34.207153%, 20.669556%, 57.035828%)" offset="0.40625"/><stop stop-opacity="1" stop-color="rgb(34.414673%, 21.003723%, 57.319641%)" offset="0.414062"/><stop stop-opacity="1" stop-color="rgb(34.623718%, 21.336365%, 57.603455%)" offset="0.421875"/><stop stop-opacity="1" stop-color="rgb(34.831238%, 21.670532%, 57.888794%)" offset="0.429687"/><stop stop-opacity="1" stop-color="rgb(35.038757%, 22.003174%, 58.172607%)" offset="0.4375"/><stop stop-opacity="1" stop-color="rgb(35.246277%, 22.337341%, 58.456421%)" offset="0.445312"/><stop stop-opacity="1" stop-color="rgb(35.455322%, 22.669983%, 58.740234%)" offset="0.453125"/><stop stop-opacity="1" stop-color="rgb(35.662842%, 23.00415%, 59.025574%)" offset="0.460937"/><stop stop-opacity="1" stop-color="rgb(35.870361%, 23.336792%, 59.309387%)" offset="0.46875"/><stop stop-opacity="1" stop-color="rgb(36.077881%, 23.670959%, 59.593201%)" offset="0.476562"/><stop stop-opacity="1" stop-color="rgb(36.286926%, 24.003601%, 59.877014%)" offset="0.484375"/><stop stop-opacity="1" stop-color="rgb(36.494446%, 24.337769%, 60.162354%)" offset="0.492187"/><stop stop-opacity="1" stop-color="rgb(36.701965%, 24.67041%, 60.446167%)" offset="0.5"/><stop stop-opacity="1" stop-color="rgb(36.909485%, 25.004578%, 60.72998%)" offset="0.507812"/><stop stop-opacity="1" stop-color="rgb(37.11853%, 25.337219%, 61.013794%)" offset="0.515625"/><stop stop-opacity="1" stop-color="rgb(37.32605%, 25.671387%, 61.299133%)" offset="0.523438"/><stop stop-opacity="1" stop-color="rgb(37.533569%, 26.004028%, 61.582947%)" offset="0.53125"/><stop stop-opacity="1" stop-color="rgb(37.741089%, 26.338196%, 61.86676%)" offset="0.539062"/><stop stop-opacity="1" stop-color="rgb(37.950134%, 26.670837%, 62.150574%)" offset="0.546875"/><stop stop-opacity="1" stop-color="rgb(38.157654%, 27.005005%, 62.435913%)" offset="0.554688"/><stop stop-opacity="1" stop-color="rgb(38.365173%, 27.337646%, 62.719727%)" offset="0.5625"/><stop stop-opacity="1" stop-color="rgb(38.574219%, 27.671814%, 63.00354%)" offset="0.570312"/><stop stop-opacity="1" stop-color="rgb(38.781738%, 28.004456%, 63.287354%)" offset="0.578125"/><stop stop-opacity="1" stop-color="rgb(38.989258%, 28.338623%, 63.572693%)" offset="0.585938"/><stop stop-opacity="1" stop-color="rgb(39.196777%, 28.671265%, 63.856506%)" offset="0.59375"/><stop stop-opacity="1" stop-color="rgb(39.405823%, 29.005432%, 64.14032%)" offset="0.601562"/><stop stop-opacity="1" stop-color="rgb(39.613342%, 29.338074%, 64.424133%)" offset="0.609375"/><stop stop-opacity="1" stop-color="rgb(39.820862%, 29.672241%, 64.709473%)" offset="0.617188"/><stop stop-opacity="1" stop-color="rgb(40.028381%, 30.004883%, 64.993286%)" offset="0.625"/><stop stop-opacity="1" stop-color="rgb(40.237427%, 30.33905%, 65.2771%)" offset="0.632812"/><stop stop-opacity="1" stop-color="rgb(40.666199%, 30.697632%, 65.730286%)" offset="0.636719"/><stop stop-opacity="1" stop-color="rgb(40.991211%, 30.889893%, 66.043091%)" offset="0.640625"/><stop stop-opacity="1" stop-color="rgb(41.403198%, 31.089783%, 66.419983%)" offset="0.644531"/><stop stop-opacity="1" stop-color="rgb(41.815186%, 31.291199%, 66.798401%)" offset="0.648438"/><stop stop-opacity="1" stop-color="rgb(42.225647%, 31.492615%, 67.175293%)" offset="0.652344"/><stop stop-opacity="1" stop-color="rgb(42.637634%, 31.694031%, 67.552185%)" offset="0.65625"/><stop stop-opacity="1" stop-color="rgb(43.048096%, 31.895447%, 67.929077%)" offset="0.660156"/><stop stop-opacity="1" stop-color="rgb(43.460083%, 32.096863%, 68.307495%)" offset="0.664062"/><stop stop-opacity="1" stop-color="rgb(43.870544%, 32.298279%, 68.684387%)" offset="0.667969"/><stop stop-opacity="1" stop-color="rgb(44.282532%, 32.499695%, 69.062805%)" offset="0.671875"/><stop stop-opacity="1" stop-color="rgb(44.694519%, 32.701111%, 69.439697%)" offset="0.675781"/><stop stop-opacity="1" stop-color="rgb(45.106506%, 32.902527%, 69.818115%)" offset="0.679688"/><stop stop-opacity="1" stop-color="rgb(45.516968%, 33.103943%, 70.195007%)" offset="0.683594"/><stop stop-opacity="1" stop-color="rgb(45.928955%, 33.305359%, 70.573425%)" offset="0.6875"/><stop stop-opacity="1" stop-color="rgb(46.339417%, 33.506775%, 70.950317%)" offset="0.691406"/><stop stop-opacity="1" stop-color="rgb(46.751404%, 33.708191%, 71.327209%)" offset="0.695312"/><stop stop-opacity="1" stop-color="rgb(47.161865%, 33.909607%, 71.704102%)" offset="0.699219"/><stop stop-opacity="1" stop-color="rgb(47.573853%, 34.111023%, 72.08252%)" offset="0.703125"/><stop stop-opacity="1" stop-color="rgb(47.98584%, 34.312439%, 72.459412%)" offset="0.707031"/><stop stop-opacity="1" stop-color="rgb(48.397827%, 34.513855%, 72.83783%)" offset="0.710938"/><stop stop-opacity="1" stop-color="rgb(48.808289%, 34.713745%, 73.214722%)" offset="0.714844"/><stop stop-opacity="1" stop-color="rgb(49.220276%, 34.915161%, 73.59314%)" offset="0.71875"/><stop stop-opacity="1" stop-color="rgb(49.630737%, 35.116577%, 73.970032%)" offset="0.722656"/><stop stop-opacity="1" stop-color="rgb(50.042725%, 35.317993%, 74.34845%)" offset="0.726562"/><stop stop-opacity="1" stop-color="rgb(50.453186%, 35.519409%, 74.725342%)" offset="0.730469"/><stop stop-opacity="1" stop-color="rgb(50.865173%, 35.720825%, 75.102234%)" offset="0.734375"/><stop stop-opacity="1" stop-color="rgb(51.277161%, 35.922241%, 75.479126%)" offset="0.738281"/><stop stop-opacity="1" stop-color="rgb(51.689148%, 36.123657%, 75.857544%)" offset="0.742188"/><stop stop-opacity="1" stop-color="rgb(52.099609%, 36.325073%, 76.234436%)" offset="0.746094"/><stop stop-opacity="1" stop-color="rgb(52.511597%, 36.526489%, 76.612854%)" offset="0.75"/><stop stop-opacity="1" stop-color="rgb(52.922058%, 36.727905%, 76.989746%)" offset="0.753906"/><stop stop-opacity="1" stop-color="rgb(53.334045%, 36.929321%, 77.368164%)" offset="0.757812"/><stop stop-opacity="1" stop-color="rgb(53.744507%, 37.130737%, 77.745056%)" offset="0.761719"/><stop stop-opacity="1" stop-color="rgb(54.156494%, 37.332153%, 78.123474%)" offset="0.765625"/><stop stop-opacity="1" stop-color="rgb(54.568481%, 37.533569%, 78.500366%)" offset="0.769531"/><stop stop-opacity="1" stop-color="rgb(54.980469%, 37.734985%, 78.877258%)" offset="0.773438"/><stop stop-opacity="1" stop-color="rgb(55.39093%, 37.936401%, 79.25415%)" offset="0.777344"/><stop stop-opacity="1" stop-color="rgb(55.802917%, 38.137817%, 79.632568%)" offset="0.78125"/><stop stop-opacity="1" stop-color="rgb(56.213379%, 38.337708%, 80.00946%)" offset="0.785156"/><stop stop-opacity="1" stop-color="rgb(56.625366%, 38.539124%, 80.387878%)" offset="0.789062"/><stop stop-opacity="1" stop-color="rgb(57.035828%, 38.74054%, 80.764771%)" offset="0.792969"/><stop stop-opacity="1" stop-color="rgb(57.447815%, 38.941956%, 81.143188%)" offset="0.796875"/><stop stop-opacity="1" stop-color="rgb(57.859802%, 39.143372%, 81.520081%)" offset="0.800781"/><stop stop-opacity="1" stop-color="rgb(58.27179%, 39.344788%, 81.896973%)" offset="0.804688"/><stop stop-opacity="1" stop-color="rgb(58.682251%, 39.546204%, 82.273865%)" offset="0.808594"/><stop stop-opacity="1" stop-color="rgb(59.094238%, 39.74762%, 82.652283%)" offset="0.8125"/><stop stop-opacity="1" stop-color="rgb(59.5047%, 39.949036%, 83.029175%)" offset="0.816406"/><stop stop-opacity="1" stop-color="rgb(59.916687%, 40.150452%, 83.407593%)" offset="0.820313"/><stop stop-opacity="1" stop-color="rgb(60.327148%, 40.351868%, 83.784485%)" offset="0.824219"/><stop stop-opacity="1" stop-color="rgb(60.739136%, 40.553284%, 84.162903%)" offset="0.828125"/><stop stop-opacity="1" stop-color="rgb(61.151123%, 40.7547%, 84.539795%)" offset="0.832031"/><stop stop-opacity="1" stop-color="rgb(61.56311%, 40.956116%, 84.918213%)" offset="0.835938"/><stop stop-opacity="1" stop-color="rgb(61.973572%, 41.157532%, 85.295105%)" offset="0.839844"/><stop stop-opacity="1" stop-color="rgb(62.385559%, 41.358948%, 85.671997%)" offset="0.84375"/><stop stop-opacity="1" stop-color="rgb(62.796021%, 41.560364%, 86.048889%)" offset="0.847656"/><stop stop-opacity="1" stop-color="rgb(63.208008%, 41.76178%, 86.427307%)" offset="0.851562"/><stop stop-opacity="1" stop-color="rgb(63.618469%, 41.96167%, 86.804199%)" offset="0.855469"/><stop stop-opacity="1" stop-color="rgb(64.030457%, 42.163086%, 87.182617%)" offset="0.859375"/><stop stop-opacity="1" stop-color="rgb(64.442444%, 42.364502%, 87.559509%)" offset="0.863281"/><stop stop-opacity="1" stop-color="rgb(64.854431%, 42.565918%, 87.937927%)" offset="0.867188"/><stop stop-opacity="1" stop-color="rgb(65.264893%, 42.767334%, 88.314819%)" offset="0.871094"/><stop stop-opacity="1" stop-color="rgb(65.67688%, 42.96875%, 88.693237%)" offset="0.875"/><stop stop-opacity="1" stop-color="rgb(66.087341%, 43.170166%, 89.070129%)" offset="0.878906"/><stop stop-opacity="1" stop-color="rgb(66.499329%, 43.371582%, 89.447021%)" offset="0.882812"/><stop stop-opacity="1" stop-color="rgb(66.90979%, 43.572998%, 89.823914%)" offset="0.886719"/><stop stop-opacity="1" stop-color="rgb(67.321777%, 43.774414%, 90.202332%)" offset="0.890625"/><stop stop-opacity="1" stop-color="rgb(67.733765%, 43.97583%, 90.579224%)" offset="0.894531"/><stop stop-opacity="1" stop-color="rgb(68.145752%, 44.177246%, 90.957642%)" offset="0.898438"/><stop stop-opacity="1" stop-color="rgb(68.556213%, 44.378662%, 91.334534%)" offset="0.902344"/><stop stop-opacity="1" stop-color="rgb(68.968201%, 44.580078%, 91.712952%)" offset="0.90625"/><stop stop-opacity="1" stop-color="rgb(69.378662%, 44.781494%, 92.089844%)" offset="0.910156"/><stop stop-opacity="1" stop-color="rgb(69.790649%, 44.98291%, 92.468262%)" offset="0.914062"/><stop stop-opacity="1" stop-color="rgb(70.201111%, 45.184326%, 92.845154%)" offset="0.917969"/><stop stop-opacity="1" stop-color="rgb(70.613098%, 45.385742%, 93.222046%)" offset="0.921875"/><stop stop-opacity="1" stop-color="rgb(71.025085%, 45.585632%, 93.598938%)" offset="0.925781"/><stop stop-opacity="1" stop-color="rgb(71.437073%, 45.787048%, 93.977356%)" offset="0.929688"/><stop stop-opacity="1" stop-color="rgb(71.847534%, 45.988464%, 94.354248%)" offset="0.933594"/><stop stop-opacity="1" stop-color="rgb(72.259521%, 46.18988%, 94.732666%)" offset="0.9375"/><stop stop-opacity="1" stop-color="rgb(72.669983%, 46.391296%, 95.109558%)" offset="0.941406"/><stop stop-opacity="1" stop-color="rgb(73.08197%, 46.592712%, 95.487976%)" offset="0.945312"/><stop stop-opacity="1" stop-color="rgb(73.492432%, 46.794128%, 95.864868%)" offset="0.949219"/><stop stop-opacity="1" stop-color="rgb(73.904419%, 46.995544%, 96.243286%)" offset="0.953125"/><stop stop-opacity="1" stop-color="rgb(74.316406%, 47.19696%, 96.620178%)" offset="0.957031"/><stop stop-opacity="1" stop-color="rgb(74.728394%, 47.398376%, 96.99707%)" offset="0.960938"/><stop stop-opacity="1" stop-color="rgb(75.138855%, 47.599792%, 97.373962%)" offset="0.964844"/><stop stop-opacity="1" stop-color="rgb(75.550842%, 47.801208%, 97.75238%)" offset="0.96875"/><stop stop-opacity="1" stop-color="rgb(75.961304%, 48.002625%, 98.129272%)" offset="0.972656"/><stop stop-opacity="1" stop-color="rgb(76.373291%, 48.204041%, 98.50769%)" offset="0.976562"/><stop stop-opacity="1" stop-color="rgb(76.783752%, 48.405457%, 98.884583%)" offset="0.980469"/><stop stop-opacity="1" stop-color="rgb(77.19574%, 48.606873%, 99.263%)" offset="0.984375"/><stop stop-opacity="1" stop-color="rgb(77.597046%, 48.802185%, 99.630737%)" offset="0.988281"/><stop stop-opacity="1" stop-color="rgb(77.999878%, 48.999023%, 100%)" offset="0.992188"/><stop stop-opacity="1" stop-color="rgb(77.999878%, 48.999023%, 100%)" offset="1"/></linearGradient><clipPath id="id4"><path d="M 118.617188 118.617188 L 691.617188 118.617188 L 691.617188 691.617188 L 118.617188 691.617188 Z M 118.617188 118.617188 " clip-rule="nonzero"/></clipPath></defs><rect x="-81" width="972" fill="rgb(100%, 100%, 100%)" y="-80.999999" height="971.999992" fill-opacity="1"/><rect x="-81" width="972" fill="rgb(100%, 100%, 100%)" y="-80.999999" height="971.999992" fill-opacity="1"/><rect x="-81" width="972" fill="rgb(100%, 100%, 100%)" y="-80.999999" height="971.999992" fill-opacity="1"/><rect x="-81" width="972" fill="rgb(100%, 100%, 100%)" y="-80.999999" height="971.999992" fill-opacity="1"/><g clip-path="url(#id1)"><g clip-path="url(#id2)"><path fill="url(#id3)" d="M 775.738281 33.988281 L 33.988281 33.988281 L 33.988281 775.738281 L 775.738281 775.738281 Z M 775.738281 33.988281 " fill-rule="nonzero"/></g></g><g clip-path="url(#id4)"><path fill="rgb(100%, 100%, 100%)" d="M 405.117188 691.617188 C 246.839844 691.617188 118.617188 563.398438 118.617188 405.117188 C 118.617188 246.839844 246.839844 118.617188 405.117188 118.617188 C 563.398438 118.617188 691.617188 246.839844 691.617188 405.117188 C 691.617188 563.398438 563.398438 691.617188 405.117188 691.617188 Z M 405.117188 671.152344 C 552.097656 671.152344 671.152344 552.097656 671.152344 405.117188 C 671.152344 258.136719 552.097656 139.082031 405.117188 139.082031 C 258.136719 139.082031 139.082031 258.136719 139.082031 405.117188 C 139.082031 552.097656 258.136719 671.152344 405.117188 671.152344 Z M 233.625 519.269531 C 227.972656 511.703125 224.242188 505.734375 222.21875 502.109375 C 219.449219 497.207031 221.257812 491.027344 226.269531 488.253906 C 231.171875 485.484375 237.355469 487.296875 240.125 492.304688 C 241.722656 495.074219 245.027344 500.296875 250.039062 507.121094 C 258.5625 518.523438 268.902344 530.035156 280.945312 540.695312 C 315.160156 571.175781 356.515625 589.296875 405.117188 589.296875 C 453.722656 589.296875 495.074219 571.175781 529.289062 540.695312 C 541.332031 530.035156 551.671875 518.523438 560.199219 507.121094 C 565.207031 500.296875 568.511719 495.074219 570.113281 492.304688 C 572.882812 487.296875 579.066406 485.484375 583.96875 488.253906 C 588.976562 491.027344 590.789062 497.207031 588.019531 502.109375 C 585.992188 505.734375 582.261719 511.703125 576.613281 519.269531 C 567.234375 531.847656 556.042969 544.316406 542.933594 556.042969 C 505.09375 589.511719 459.15625 609.761719 405.117188 609.761719 C 351.078125 609.761719 305.140625 589.511719 267.304688 556.042969 C 254.195312 544.316406 243.003906 531.847656 233.625 519.269531 Z M 318.785156 353.957031 L 255.261719 322.195312 C 250.144531 319.636719 248.117188 313.457031 250.675781 308.445312 C 253.234375 303.4375 259.308594 301.304688 264.425781 303.863281 L 346.285156 344.792969 C 353.746094 348.628906 353.746094 359.285156 346.285156 363.125 L 264.425781 404.050781 C 259.308594 406.609375 253.234375 404.480469 250.675781 399.46875 C 248.117188 394.460938 250.144531 388.277344 255.261719 385.71875 Z M 491.453125 353.957031 L 554.976562 385.71875 C 560.09375 388.277344 562.117188 394.460938 559.558594 399.46875 C 557 404.480469 550.925781 406.609375 545.808594 404.050781 L 463.953125 363.125 C 456.492188 359.285156 456.492188 348.628906 463.953125 344.792969 L 545.808594 303.863281 C 550.925781 301.304688 557 303.4375 559.558594 308.445312 C 562.117188 313.457031 560.09375 319.636719 554.976562 322.195312 Z M 491.453125 353.957031 " fill-opacity="1" fill-rule="evenodd"/></g></svg>