<svg xmlns="http://www.w3.org/2000/svg" xmlns:xlink="http://www.w3.org/1999/xlink" width="1500" zoomAndPan="magnify" viewBox="0 0 1125 374.999991" height="500" preserveAspectRatio="xMidYMid meet" version="1.0"><defs><g><g id="id1"/></g><clipPath id="id2"><path d="M 353 198 L 734 198 L 734 310.628906 L 353 310.628906 Z M 353 198 " clip-rule="nonzero"/></clipPath><clipPath id="id3"><path d="M 377.144531 201.863281 C 416.542969 236.566406 477.488281 257.453125 543.875 257.453125 C 610.265625 257.453125 671.210938 236.566406 710.609375 201.863281 C 722.582031 191.308594 739.996094 205.886719 731.613281 219.59375 C 696.789062 276.601562 624.304688 313.152344 543.875 313.152344 C 463.449219 313.152344 390.964844 276.601562 356.140625 219.59375 C 347.757812 205.886719 365.171875 191.308594 377.144531 201.863281 Z M 377.144531 201.863281 " clip-rule="nonzero"/></clipPath></defs><rect x="-112.5" width="1350" fill="rgb(100%, 100%, 100%)" y="-37.499999" height="449.999989" fill-opacity="1"/><rect x="-112.5" width="1350" fill="rgb(23.529053%, 3.529358%, 42.349243%)" y="-37.499999" height="449.999989" fill-opacity="1"/><rect x="-112.5" width="1350" fill="rgb(100%, 100%, 100%)" y="-37.499999" height="449.999989" fill-opacity="1"/><rect x="-112.5" width="1350" fill="rgb(23.529053%, 3.529358%, 42.349243%)" y="-37.499999" height="449.999989" fill-opacity="1"/><g clip-path="url(#id2)"><g clip-path="url(#id3)"><path fill="rgb(100%, 100%, 100%)" d="M 214.546875 452.402344 L 873.097656 452.402344 L 873.097656 59.019531 L 214.546875 59.019531 Z M 214.546875 452.402344 " fill-opacity="1" fill-rule="nonzero"/></g></g><g fill="rgb(100%, 100%, 100%)" fill-opacity="1"><g transform="translate(147.424458, 156.614376)"><g><path d="M 37.296875 1.203125 C 30.367188 1.203125 24.550781 0.125 19.84375 -2.03125 C 15.144531 -4.1875 11.539062 -6.957031 9.03125 -10.34375 C 6.519531 -13.726562 5.179688 -17.296875 5.015625 -21.046875 C 5.015625 -21.679688 5.273438 -22.253906 5.796875 -22.765625 C 6.316406 -23.285156 6.9375 -23.546875 7.65625 -23.546875 L 13.75 -23.546875 C 14.707031 -23.546875 15.425781 -23.304688 15.90625 -22.828125 C 16.382812 -22.359375 16.703125 -21.800781 16.859375 -21.15625 C 17.335938 -19.25 18.332031 -17.359375 19.84375 -15.484375 C 21.363281 -13.609375 23.535156 -12.050781 26.359375 -10.8125 C 29.191406 -9.582031 32.835938 -8.96875 37.296875 -8.96875 C 44.148438 -8.96875 49.191406 -10.179688 52.421875 -12.609375 C 55.648438 -15.046875 57.265625 -18.296875 57.265625 -22.359375 C 57.265625 -25.148438 56.40625 -27.398438 54.6875 -29.109375 C 52.976562 -30.828125 50.367188 -32.363281 46.859375 -33.71875 C 43.359375 -35.070312 38.816406 -36.546875 33.234375 -38.140625 C 27.421875 -39.816406 22.597656 -41.648438 18.765625 -43.640625 C 14.941406 -45.628906 12.09375 -48.097656 10.21875 -51.046875 C 8.34375 -54.003906 7.40625 -57.753906 7.40625 -62.296875 C 7.40625 -66.597656 8.5625 -70.441406 10.875 -73.828125 C 13.1875 -77.210938 16.535156 -79.898438 20.921875 -81.890625 C 25.304688 -83.890625 30.566406 -84.890625 36.703125 -84.890625 C 41.648438 -84.890625 45.972656 -84.226562 49.671875 -82.90625 C 53.378906 -81.59375 56.46875 -79.84375 58.9375 -77.65625 C 61.414062 -75.46875 63.289062 -73.113281 64.5625 -70.59375 C 65.84375 -68.082031 66.519531 -65.632812 66.59375 -63.25 C 66.59375 -62.6875 66.394531 -62.144531 66 -61.625 C 65.601562 -61.113281 64.960938 -60.859375 64.078125 -60.859375 L 57.75 -60.859375 C 57.1875 -60.859375 56.609375 -61.015625 56.015625 -61.328125 C 55.421875 -61.648438 54.960938 -62.25 54.640625 -63.125 C 54.160156 -66.394531 52.328125 -69.144531 49.140625 -71.375 C 45.953125 -73.601562 41.804688 -74.71875 36.703125 -74.71875 C 31.523438 -74.71875 27.320312 -73.722656 24.09375 -71.734375 C 20.863281 -69.742188 19.25 -66.632812 19.25 -62.40625 C 19.25 -59.695312 20.003906 -57.445312 21.515625 -55.65625 C 23.035156 -53.863281 25.425781 -52.289062 28.6875 -50.9375 C 31.957031 -49.582031 36.222656 -48.144531 41.484375 -46.625 C 47.859375 -44.875 53.078125 -43.019531 57.140625 -41.0625 C 61.210938 -39.113281 64.222656 -36.679688 66.171875 -33.765625 C 68.128906 -30.859375 69.109375 -27.132812 69.109375 -22.59375 C 69.109375 -17.570312 67.789062 -13.285156 65.15625 -9.734375 C 62.53125 -6.191406 58.84375 -3.484375 54.09375 -1.609375 C 49.351562 0.265625 43.753906 1.203125 37.296875 1.203125 Z M 37.296875 1.203125 "/></g></g></g><g fill="rgb(100%, 100%, 100%)" fill-opacity="1"><g transform="translate(221.785594, 156.614376)"><g><path d="M 34.3125 1.203125 C 28.257812 1.203125 23.195312 0.046875 19.125 -2.265625 C 15.0625 -4.578125 11.953125 -7.785156 9.796875 -11.890625 C 7.648438 -15.992188 6.457031 -20.675781 6.21875 -25.9375 C 6.132812 -27.300781 6.09375 -29.035156 6.09375 -31.140625 C 6.09375 -33.253906 6.132812 -34.953125 6.21875 -36.234375 C 6.457031 -41.566406 7.671875 -46.265625 9.859375 -50.328125 C 12.054688 -54.398438 15.1875 -57.59375 19.25 -59.90625 C 23.3125 -62.21875 28.332031 -63.375 34.3125 -63.375 C 40.289062 -63.375 45.3125 -62.21875 49.375 -59.90625 C 53.445312 -57.59375 56.578125 -54.398438 58.765625 -50.328125 C 60.953125 -46.265625 62.164062 -41.566406 62.40625 -36.234375 C 62.488281 -34.953125 62.53125 -33.253906 62.53125 -31.140625 C 62.53125 -29.035156 62.488281 -27.300781 62.40625 -25.9375 C 62.164062 -20.675781 60.96875 -15.992188 58.8125 -11.890625 C 56.664062 -7.785156 53.5625 -4.578125 49.5 -2.265625 C 45.4375 0.046875 40.375 1.203125 34.3125 1.203125 Z M 34.3125 -8.015625 C 39.257812 -8.015625 43.207031 -9.585938 46.15625 -12.734375 C 49.101562 -15.878906 50.695312 -20.484375 50.9375 -26.546875 C 51.007812 -27.742188 51.046875 -29.257812 51.046875 -31.09375 C 51.046875 -32.925781 51.007812 -34.4375 50.9375 -35.625 C 50.695312 -41.6875 49.101562 -46.289062 46.15625 -49.4375 C 43.207031 -52.582031 39.257812 -54.15625 34.3125 -54.15625 C 29.375 -54.15625 25.410156 -52.582031 22.421875 -49.4375 C 19.429688 -46.289062 17.851562 -41.6875 17.6875 -35.625 C 17.613281 -34.4375 17.578125 -32.925781 17.578125 -31.09375 C 17.578125 -29.257812 17.613281 -27.742188 17.6875 -26.546875 C 17.851562 -20.484375 19.429688 -15.878906 22.421875 -12.734375 C 25.410156 -9.585938 29.375 -8.015625 34.3125 -8.015625 Z M 34.3125 -8.015625 "/></g></g></g><g fill="rgb(100%, 100%, 100%)" fill-opacity="1"><g transform="translate(290.408258, 156.614376)"><g><path d="M 11.59375 0 C 10.800781 0 10.144531 -0.253906 9.625 -0.765625 C 9.101562 -1.285156 8.84375 -1.945312 8.84375 -2.75 L 8.84375 -59.296875 C 8.84375 -60.097656 9.101562 -60.773438 9.625 -61.328125 C 10.144531 -61.890625 10.800781 -62.171875 11.59375 -62.171875 L 17.09375 -62.171875 C 17.894531 -62.171875 18.570312 -61.890625 19.125 -61.328125 C 19.6875 -60.773438 19.96875 -60.097656 19.96875 -59.296875 L 19.96875 -54.046875 C 21.5625 -56.753906 23.753906 -58.785156 26.546875 -60.140625 C 29.335938 -61.492188 32.722656 -62.171875 36.703125 -62.171875 L 41.375 -62.171875 C 42.164062 -62.171875 42.820312 -61.910156 43.34375 -61.390625 C 43.863281 -60.878906 44.125 -60.222656 44.125 -59.421875 L 44.125 -54.515625 C 44.125 -53.722656 43.863281 -53.085938 43.34375 -52.609375 C 42.820312 -52.128906 42.164062 -51.890625 41.375 -51.890625 L 34.1875 -51.890625 C 29.882812 -51.890625 26.5 -50.632812 24.03125 -48.125 C 21.5625 -45.613281 20.328125 -42.207031 20.328125 -37.90625 L 20.328125 -2.75 C 20.328125 -1.945312 20.046875 -1.285156 19.484375 -0.765625 C 18.929688 -0.253906 18.253906 0 17.453125 0 Z M 11.59375 0 "/></g></g></g><g fill="rgb(100%, 100%, 100%)" fill-opacity="1"><g transform="translate(335.837897, 156.614376)"><g><path d="M 11.59375 0 C 10.800781 0 10.144531 -0.253906 9.625 -0.765625 C 9.101562 -1.285156 8.84375 -1.945312 8.84375 -2.75 L 8.84375 -59.296875 C 8.84375 -60.097656 9.101562 -60.773438 9.625 -61.328125 C 10.144531 -61.890625 10.800781 -62.171875 11.59375 -62.171875 L 17.09375 -62.171875 C 17.894531 -62.171875 18.570312 -61.890625 19.125 -61.328125 C 19.6875 -60.773438 19.96875 -60.097656 19.96875 -59.296875 L 19.96875 -54.046875 C 21.5625 -56.753906 23.753906 -58.785156 26.546875 -60.140625 C 29.335938 -61.492188 32.722656 -62.171875 36.703125 -62.171875 L 41.375 -62.171875 C 42.164062 -62.171875 42.820312 -61.910156 43.34375 -61.390625 C 43.863281 -60.878906 44.125 -60.222656 44.125 -59.421875 L 44.125 -54.515625 C 44.125 -53.722656 43.863281 -53.085938 43.34375 -52.609375 C 42.820312 -52.128906 42.164062 -51.890625 41.375 -51.890625 L 34.1875 -51.890625 C 29.882812 -51.890625 26.5 -50.632812 24.03125 -48.125 C 21.5625 -45.613281 20.328125 -42.207031 20.328125 -37.90625 L 20.328125 -2.75 C 20.328125 -1.945312 20.046875 -1.285156 19.484375 -0.765625 C 18.929688 -0.253906 18.253906 0 17.453125 0 Z M 11.59375 0 "/></g></g></g><g fill="rgb(100%, 100%, 100%)" fill-opacity="1"><g transform="translate(381.267536, 156.614376)"><g><path d="M 11.59375 0 C 10.800781 0 10.144531 -0.253906 9.625 -0.765625 C 9.101562 -1.285156 8.84375 -1.945312 8.84375 -2.75 L 8.84375 -59.421875 C 8.84375 -60.222656 9.101562 -60.878906 9.625 -61.390625 C 10.144531 -61.910156 10.800781 -62.171875 11.59375 -62.171875 L 17.34375 -62.171875 C 18.132812 -62.171875 18.789062 -61.910156 19.3125 -61.390625 C 19.832031 -60.878906 20.09375 -60.222656 20.09375 -59.421875 L 20.09375 -2.75 C 20.09375 -1.945312 19.832031 -1.285156 19.3125 -0.765625 C 18.789062 -0.253906 18.132812 0 17.34375 0 Z M 10.640625 -73.765625 C 9.847656 -73.765625 9.191406 -74.023438 8.671875 -74.546875 C 8.148438 -75.066406 7.890625 -75.722656 7.890625 -76.515625 L 7.890625 -82.96875 C 7.890625 -83.769531 8.148438 -84.445312 8.671875 -85 C 9.191406 -85.5625 9.847656 -85.84375 10.640625 -85.84375 L 18.171875 -85.84375 C 18.972656 -85.84375 19.648438 -85.5625 20.203125 -85 C 20.765625 -84.445312 21.046875 -83.769531 21.046875 -82.96875 L 21.046875 -76.515625 C 21.046875 -75.722656 20.765625 -75.066406 20.203125 -74.546875 C 19.648438 -74.023438 18.972656 -73.765625 18.171875 -73.765625 Z M 10.640625 -73.765625 "/></g></g></g><g fill="rgb(100%, 100%, 100%)" fill-opacity="1"><g transform="translate(410.199065, 156.614376)"><g><path d="M 30.375 1.203125 C 25.90625 1.203125 22.078125 0.644531 18.890625 -0.46875 C 15.703125 -1.59375 13.109375 -2.953125 11.109375 -4.546875 C 9.117188 -6.140625 7.625 -7.734375 6.625 -9.328125 C 5.632812 -10.921875 5.097656 -12.195312 5.015625 -13.15625 C 4.941406 -14.03125 5.222656 -14.707031 5.859375 -15.1875 C 6.492188 -15.664062 7.128906 -15.90625 7.765625 -15.90625 L 13.15625 -15.90625 C 13.550781 -15.90625 13.890625 -15.84375 14.171875 -15.71875 C 14.453125 -15.601562 14.828125 -15.265625 15.296875 -14.703125 C 16.335938 -13.585938 17.492188 -12.472656 18.765625 -11.359375 C 20.046875 -10.242188 21.617188 -9.328125 23.484375 -8.609375 C 25.359375 -7.890625 27.691406 -7.53125 30.484375 -7.53125 C 34.554688 -7.53125 37.90625 -8.304688 40.53125 -9.859375 C 43.164062 -11.421875 44.484375 -13.710938 44.484375 -16.734375 C 44.484375 -18.734375 43.941406 -20.328125 42.859375 -21.515625 C 41.785156 -22.710938 39.875 -23.789062 37.125 -24.75 C 34.375 -25.707031 30.609375 -26.703125 25.828125 -27.734375 C 21.046875 -28.847656 17.257812 -30.222656 14.46875 -31.859375 C 11.675781 -33.492188 9.679688 -35.445312 8.484375 -37.71875 C 7.296875 -39.988281 6.703125 -42.5625 6.703125 -45.4375 C 6.703125 -48.382812 7.578125 -51.234375 9.328125 -53.984375 C 11.078125 -56.734375 13.644531 -58.984375 17.03125 -60.734375 C 20.425781 -62.492188 24.671875 -63.375 29.765625 -63.375 C 33.910156 -63.375 37.457031 -62.851562 40.40625 -61.8125 C 43.351562 -60.78125 45.785156 -59.484375 47.703125 -57.921875 C 49.617188 -56.367188 51.050781 -54.832031 52 -53.3125 C 52.957031 -51.800781 53.476562 -50.53125 53.5625 -49.5 C 53.644531 -48.695312 53.40625 -48.035156 52.84375 -47.515625 C 52.289062 -47.003906 51.65625 -46.75 50.9375 -46.75 L 45.90625 -46.75 C 45.351562 -46.75 44.894531 -46.867188 44.53125 -47.109375 C 44.175781 -47.347656 43.835938 -47.625 43.515625 -47.9375 C 42.722656 -48.976562 41.785156 -50.015625 40.703125 -51.046875 C 39.628906 -52.085938 38.234375 -52.945312 36.515625 -53.625 C 34.804688 -54.300781 32.554688 -54.640625 29.765625 -54.640625 C 25.785156 -54.640625 22.796875 -53.800781 20.796875 -52.125 C 18.804688 -50.457031 17.8125 -48.347656 17.8125 -45.796875 C 17.8125 -44.273438 18.25 -42.914062 19.125 -41.71875 C 20 -40.53125 21.671875 -39.457031 24.140625 -38.5 C 26.617188 -37.539062 30.289062 -36.503906 35.15625 -35.390625 C 40.414062 -34.359375 44.554688 -32.960938 47.578125 -31.203125 C 50.609375 -29.453125 52.757812 -27.421875 54.03125 -25.109375 C 55.3125 -22.796875 55.953125 -20.125 55.953125 -17.09375 C 55.953125 -13.75 54.992188 -10.679688 53.078125 -7.890625 C 51.171875 -5.097656 48.300781 -2.882812 44.46875 -1.25 C 40.644531 0.382812 35.945312 1.203125 30.375 1.203125 Z M 30.375 1.203125 "/></g></g></g><g fill="rgb(100%, 100%, 100%)" fill-opacity="1"><g transform="translate(471.170421, 156.614376)"><g><path d="M 34.3125 1.203125 C 28.257812 1.203125 23.195312 0.046875 19.125 -2.265625 C 15.0625 -4.578125 11.953125 -7.785156 9.796875 -11.890625 C 7.648438 -15.992188 6.457031 -20.675781 6.21875 -25.9375 C 6.132812 -27.300781 6.09375 -29.035156 6.09375 -31.140625 C 6.09375 -33.253906 6.132812 -34.953125 6.21875 -36.234375 C 6.457031 -41.566406 7.671875 -46.265625 9.859375 -50.328125 C 12.054688 -54.398438 15.1875 -57.59375 19.25 -59.90625 C 23.3125 -62.21875 28.332031 -63.375 34.3125 -63.375 C 40.289062 -63.375 45.3125 -62.21875 49.375 -59.90625 C 53.445312 -57.59375 56.578125 -54.398438 58.765625 -50.328125 C 60.953125 -46.265625 62.164062 -41.566406 62.40625 -36.234375 C 62.488281 -34.953125 62.53125 -33.253906 62.53125 -31.140625 C 62.53125 -29.035156 62.488281 -27.300781 62.40625 -25.9375 C 62.164062 -20.675781 60.96875 -15.992188 58.8125 -11.890625 C 56.664062 -7.785156 53.5625 -4.578125 49.5 -2.265625 C 45.4375 0.046875 40.375 1.203125 34.3125 1.203125 Z M 34.3125 -8.015625 C 39.257812 -8.015625 43.207031 -9.585938 46.15625 -12.734375 C 49.101562 -15.878906 50.695312 -20.484375 50.9375 -26.546875 C 51.007812 -27.742188 51.046875 -29.257812 51.046875 -31.09375 C 51.046875 -32.925781 51.007812 -34.4375 50.9375 -35.625 C 50.695312 -41.6875 49.101562 -46.289062 46.15625 -49.4375 C 43.207031 -52.582031 39.257812 -54.15625 34.3125 -54.15625 C 29.375 -54.15625 25.410156 -52.582031 22.421875 -49.4375 C 19.429688 -46.289062 17.851562 -41.6875 17.6875 -35.625 C 17.613281 -34.4375 17.578125 -32.925781 17.578125 -31.09375 C 17.578125 -29.257812 17.613281 -27.742188 17.6875 -26.546875 C 17.851562 -20.484375 19.429688 -15.878906 22.421875 -12.734375 C 25.410156 -9.585938 29.375 -8.015625 34.3125 -8.015625 Z M 34.3125 -8.015625 "/></g></g></g><g fill="rgb(100%, 100%, 100%)" fill-opacity="1"><g transform="translate(539.793085, 156.614376)"><g/></g></g><g fill="rgb(100%, 100%, 100%)" fill-opacity="1"><g transform="translate(569.083267, 156.614376)"><g><path d="M 40.53125 1.203125 C 33.675781 1.203125 27.816406 0.0234375 22.953125 -2.328125 C 18.085938 -4.679688 14.335938 -8.304688 11.703125 -13.203125 C 9.078125 -18.109375 7.609375 -24.269531 7.296875 -31.6875 C 7.210938 -35.1875 7.171875 -38.550781 7.171875 -41.78125 C 7.171875 -45.007812 7.210938 -48.378906 7.296875 -51.890625 C 7.609375 -59.222656 9.140625 -65.335938 11.890625 -70.234375 C 14.640625 -75.140625 18.46875 -78.804688 23.375 -81.234375 C 28.28125 -83.671875 34 -84.890625 40.53125 -84.890625 C 46.988281 -84.890625 52.664062 -83.671875 57.5625 -81.234375 C 62.46875 -78.804688 66.316406 -75.140625 69.109375 -70.234375 C 71.898438 -65.335938 73.414062 -59.222656 73.65625 -51.890625 C 73.8125 -48.378906 73.890625 -45.007812 73.890625 -41.78125 C 73.890625 -38.550781 73.8125 -35.1875 73.65625 -31.6875 C 73.414062 -24.269531 71.957031 -18.109375 69.28125 -13.203125 C 66.613281 -8.304688 62.847656 -4.679688 57.984375 -2.328125 C 53.117188 0.0234375 47.300781 1.203125 40.53125 1.203125 Z M 40.53125 -8.96875 C 46.59375 -8.96875 51.554688 -10.800781 55.421875 -14.46875 C 59.285156 -18.132812 61.375 -24.070312 61.6875 -32.28125 C 61.851562 -35.863281 61.9375 -39.070312 61.9375 -41.90625 C 61.9375 -44.738281 61.851562 -47.90625 61.6875 -51.40625 C 61.53125 -56.90625 60.515625 -61.367188 58.640625 -64.796875 C 56.765625 -68.222656 54.273438 -70.734375 51.171875 -72.328125 C 48.066406 -73.921875 44.519531 -74.71875 40.53125 -74.71875 C 36.539062 -74.71875 32.992188 -73.921875 29.890625 -72.328125 C 26.785156 -70.734375 24.296875 -68.222656 22.421875 -64.796875 C 20.546875 -61.367188 19.488281 -56.90625 19.25 -51.40625 C 19.164062 -47.90625 19.125 -44.738281 19.125 -41.90625 C 19.125 -39.070312 19.164062 -35.863281 19.25 -32.28125 C 19.570312 -24.070312 21.679688 -18.132812 25.578125 -14.46875 C 29.484375 -10.800781 34.46875 -8.96875 40.53125 -8.96875 Z M 40.53125 -8.96875 "/></g></g></g><g fill="rgb(100%, 100%, 100%)" fill-opacity="1"><g transform="translate(650.01975, 156.614376)"><g><path d="M 31.5625 1.203125 C 27.175781 1.203125 23.390625 0.425781 20.203125 -1.125 C 17.015625 -2.6875 14.40625 -4.800781 12.375 -7.46875 C 10.34375 -10.144531 8.828125 -13.195312 7.828125 -16.625 C 6.835938 -20.050781 6.257812 -23.675781 6.09375 -27.5 C 6.019531 -28.769531 5.984375 -29.960938 5.984375 -31.078125 C 5.984375 -32.203125 6.019531 -33.398438 6.09375 -34.671875 C 6.257812 -38.421875 6.835938 -42.007812 7.828125 -45.4375 C 8.828125 -48.863281 10.34375 -51.929688 12.375 -54.640625 C 14.40625 -57.347656 17.015625 -59.476562 20.203125 -61.03125 C 23.390625 -62.59375 27.175781 -63.375 31.5625 -63.375 C 36.269531 -63.375 40.175781 -62.535156 43.28125 -60.859375 C 46.382812 -59.179688 48.9375 -57.109375 50.9375 -54.640625 L 50.9375 -82.140625 C 50.9375 -82.929688 51.191406 -83.585938 51.703125 -84.109375 C 52.222656 -84.628906 52.882812 -84.890625 53.6875 -84.890625 L 59.421875 -84.890625 C 60.222656 -84.890625 60.878906 -84.628906 61.390625 -84.109375 C 61.910156 -83.585938 62.171875 -82.929688 62.171875 -82.140625 L 62.171875 -2.75 C 62.171875 -1.945312 61.910156 -1.285156 61.390625 -0.765625 C 60.878906 -0.253906 60.222656 0 59.421875 0 L 54.046875 0 C 53.171875 0 52.492188 -0.253906 52.015625 -0.765625 C 51.535156 -1.285156 51.296875 -1.945312 51.296875 -2.75 L 51.296875 -7.765625 C 49.296875 -5.222656 46.703125 -3.09375 43.515625 -1.375 C 40.328125 0.34375 36.34375 1.203125 31.5625 1.203125 Z M 34.078125 -8.484375 C 38.054688 -8.484375 41.242188 -9.398438 43.640625 -11.234375 C 46.035156 -13.066406 47.828125 -15.398438 49.015625 -18.234375 C 50.210938 -21.066406 50.851562 -23.957031 50.9375 -26.90625 C 51.007812 -28.175781 51.046875 -29.707031 51.046875 -31.5 C 51.046875 -33.289062 51.007812 -34.828125 50.9375 -36.109375 C 50.851562 -38.898438 50.191406 -41.648438 48.953125 -44.359375 C 47.722656 -47.066406 45.890625 -49.296875 43.453125 -51.046875 C 41.023438 -52.804688 37.898438 -53.6875 34.078125 -53.6875 C 30.015625 -53.6875 26.785156 -52.785156 24.390625 -50.984375 C 21.992188 -49.191406 20.273438 -46.84375 19.234375 -43.9375 C 18.203125 -41.03125 17.609375 -37.898438 17.453125 -34.546875 C 17.378906 -32.242188 17.378906 -29.9375 17.453125 -27.625 C 17.609375 -24.269531 18.203125 -21.140625 19.234375 -18.234375 C 20.273438 -15.328125 21.992188 -12.972656 24.390625 -11.171875 C 26.785156 -9.378906 30.015625 -8.484375 34.078125 -8.484375 Z M 34.078125 -8.484375 "/></g></g></g><g fill="rgb(100%, 100%, 100%)" fill-opacity="1"><g transform="translate(721.153004, 156.614376)"><g><path d="M 34.3125 1.203125 C 28.257812 1.203125 23.195312 0.046875 19.125 -2.265625 C 15.0625 -4.578125 11.953125 -7.785156 9.796875 -11.890625 C 7.648438 -15.992188 6.457031 -20.675781 6.21875 -25.9375 C 6.132812 -27.300781 6.09375 -29.035156 6.09375 -31.140625 C 6.09375 -33.253906 6.132812 -34.953125 6.21875 -36.234375 C 6.457031 -41.566406 7.671875 -46.265625 9.859375 -50.328125 C 12.054688 -54.398438 15.1875 -57.59375 19.25 -59.90625 C 23.3125 -62.21875 28.332031 -63.375 34.3125 -63.375 C 40.289062 -63.375 45.3125 -62.21875 49.375 -59.90625 C 53.445312 -57.59375 56.578125 -54.398438 58.765625 -50.328125 C 60.953125 -46.265625 62.164062 -41.566406 62.40625 -36.234375 C 62.488281 -34.953125 62.53125 -33.253906 62.53125 -31.140625 C 62.53125 -29.035156 62.488281 -27.300781 62.40625 -25.9375 C 62.164062 -20.675781 60.96875 -15.992188 58.8125 -11.890625 C 56.664062 -7.785156 53.5625 -4.578125 49.5 -2.265625 C 45.4375 0.046875 40.375 1.203125 34.3125 1.203125 Z M 34.3125 -8.015625 C 39.257812 -8.015625 43.207031 -9.585938 46.15625 -12.734375 C 49.101562 -15.878906 50.695312 -20.484375 50.9375 -26.546875 C 51.007812 -27.742188 51.046875 -29.257812 51.046875 -31.09375 C 51.046875 -32.925781 51.007812 -34.4375 50.9375 -35.625 C 50.695312 -41.6875 49.101562 -46.289062 46.15625 -49.4375 C 43.207031 -52.582031 39.257812 -54.15625 34.3125 -54.15625 C 29.375 -54.15625 25.410156 -52.582031 22.421875 -49.4375 C 19.429688 -46.289062 17.851562 -41.6875 17.6875 -35.625 C 17.613281 -34.4375 17.578125 -32.925781 17.578125 -31.09375 C 17.578125 -29.257812 17.613281 -27.742188 17.6875 -26.546875 C 17.851562 -20.484375 19.429688 -15.878906 22.421875 -12.734375 C 25.410156 -9.585938 29.375 -8.015625 34.3125 -8.015625 Z M 34.3125 -8.015625 "/></g></g></g><g fill="rgb(100%, 100%, 100%)" fill-opacity="1"><g transform="translate(789.775668, 156.614376)"><g><path d="M 11.59375 0 C 10.800781 0 10.144531 -0.253906 9.625 -0.765625 C 9.101562 -1.285156 8.84375 -1.945312 8.84375 -2.75 L 8.84375 -59.421875 C 8.84375 -60.222656 9.101562 -60.878906 9.625 -61.390625 C 10.144531 -61.910156 10.800781 -62.171875 11.59375 -62.171875 L 17.21875 -62.171875 C 18.007812 -62.171875 18.664062 -61.910156 19.1875 -61.390625 C 19.707031 -60.878906 19.96875 -60.222656 19.96875 -59.421875 L 19.96875 -54.15625 C 22.039062 -56.875 24.648438 -59.085938 27.796875 -60.796875 C 30.941406 -62.515625 34.988281 -63.375 39.9375 -63.375 C 45.113281 -63.375 49.515625 -62.234375 53.140625 -59.953125 C 56.765625 -57.679688 59.515625 -54.535156 61.390625 -50.515625 C 63.265625 -46.492188 64.203125 -41.8125 64.203125 -36.46875 L 64.203125 -2.75 C 64.203125 -1.945312 63.941406 -1.285156 63.421875 -0.765625 C 62.910156 -0.253906 62.253906 0 61.453125 0 L 55.484375 0 C 54.679688 0 54.019531 -0.253906 53.5 -0.765625 C 52.988281 -1.285156 52.734375 -1.945312 52.734375 -2.75 L 52.734375 -35.875 C 52.734375 -41.445312 51.375 -45.804688 48.65625 -48.953125 C 45.945312 -52.109375 41.960938 -53.6875 36.703125 -53.6875 C 31.765625 -53.6875 27.800781 -52.109375 24.8125 -48.953125 C 21.820312 -45.804688 20.328125 -41.445312 20.328125 -35.875 L 20.328125 -2.75 C 20.328125 -1.945312 20.066406 -1.285156 19.546875 -0.765625 C 19.023438 -0.253906 18.367188 0 17.578125 0 Z M 11.59375 0 "/></g></g></g><g fill="rgb(100%, 100%, 100%)" fill-opacity="1"><g transform="translate(862.22397, 156.614376)"><g><path d="M 33.125 0 C 28.65625 0 25.023438 -0.851562 22.234375 -2.5625 C 19.441406 -4.28125 17.410156 -6.710938 16.140625 -9.859375 C 14.867188 -13.015625 14.234375 -16.742188 14.234375 -21.046875 L 14.234375 -52.609375 L 4.90625 -52.609375 C 4.101562 -52.609375 3.441406 -52.863281 2.921875 -53.375 C 2.410156 -53.894531 2.15625 -54.554688 2.15625 -55.359375 L 2.15625 -59.421875 C 2.15625 -60.222656 2.410156 -60.878906 2.921875 -61.390625 C 3.441406 -61.910156 4.101562 -62.171875 4.90625 -62.171875 L 14.234375 -62.171875 L 14.234375 -82.140625 C 14.234375 -82.929688 14.488281 -83.585938 15 -84.109375 C 15.519531 -84.628906 16.179688 -84.890625 16.984375 -84.890625 L 22.59375 -84.890625 C 23.394531 -84.890625 24.050781 -84.628906 24.5625 -84.109375 C 25.082031 -83.585938 25.34375 -82.929688 25.34375 -82.140625 L 25.34375 -62.171875 L 40.171875 -62.171875 C 41.046875 -62.171875 41.722656 -61.910156 42.203125 -61.390625 C 42.679688 -60.878906 42.921875 -60.222656 42.921875 -59.421875 L 42.921875 -55.359375 C 42.921875 -54.554688 42.679688 -53.894531 42.203125 -53.375 C 41.722656 -52.863281 41.046875 -52.609375 40.171875 -52.609375 L 25.34375 -52.609375 L 25.34375 -21.875 C 25.34375 -18.132812 25.976562 -15.1875 27.25 -13.03125 C 28.53125 -10.875 30.804688 -9.796875 34.078125 -9.796875 L 41.375 -9.796875 C 42.164062 -9.796875 42.820312 -9.535156 43.34375 -9.015625 C 43.863281 -8.503906 44.125 -7.847656 44.125 -7.046875 L 44.125 -2.75 C 44.125 -1.945312 43.863281 -1.285156 43.34375 -0.765625 C 42.820312 -0.253906 42.164062 0 41.375 0 Z M 33.125 0 "/></g></g></g><g fill="rgb(100%, 100%, 100%)" fill-opacity="1"><g transform="translate(908.968688, 156.614376)"><g><path d="M 34.3125 1.203125 C 28.257812 1.203125 23.195312 0.046875 19.125 -2.265625 C 15.0625 -4.578125 11.953125 -7.785156 9.796875 -11.890625 C 7.648438 -15.992188 6.457031 -20.675781 6.21875 -25.9375 C 6.132812 -27.300781 6.09375 -29.035156 6.09375 -31.140625 C 6.09375 -33.253906 6.132812 -34.953125 6.21875 -36.234375 C 6.457031 -41.566406 7.671875 -46.265625 9.859375 -50.328125 C 12.054688 -54.398438 15.1875 -57.59375 19.25 -59.90625 C 23.3125 -62.21875 28.332031 -63.375 34.3125 -63.375 C 40.289062 -63.375 45.3125 -62.21875 49.375 -59.90625 C 53.445312 -57.59375 56.578125 -54.398438 58.765625 -50.328125 C 60.953125 -46.265625 62.164062 -41.566406 62.40625 -36.234375 C 62.488281 -34.953125 62.53125 -33.253906 62.53125 -31.140625 C 62.53125 -29.035156 62.488281 -27.300781 62.40625 -25.9375 C 62.164062 -20.675781 60.96875 -15.992188 58.8125 -11.890625 C 56.664062 -7.785156 53.5625 -4.578125 49.5 -2.265625 C 45.4375 0.046875 40.375 1.203125 34.3125 1.203125 Z M 34.3125 -8.015625 C 39.257812 -8.015625 43.207031 -9.585938 46.15625 -12.734375 C 49.101562 -15.878906 50.695312 -20.484375 50.9375 -26.546875 C 51.007812 -27.742188 51.046875 -29.257812 51.046875 -31.09375 C 51.046875 -32.925781 51.007812 -34.4375 50.9375 -35.625 C 50.695312 -41.6875 49.101562 -46.289062 46.15625 -49.4375 C 43.207031 -52.582031 39.257812 -54.15625 34.3125 -54.15625 C 29.375 -54.15625 25.410156 -52.582031 22.421875 -49.4375 C 19.429688 -46.289062 17.851562 -41.6875 17.6875 -35.625 C 17.613281 -34.4375 17.578125 -32.925781 17.578125 -31.09375 C 17.578125 -29.257812 17.613281 -27.742188 17.6875 -26.546875 C 17.851562 -20.484375 19.429688 -15.878906 22.421875 -12.734375 C 25.410156 -9.585938 29.375 -8.015625 34.3125 -8.015625 Z M 34.3125 -8.015625 "/></g></g></g></svg>